<?xml version="1.0" encoding="UTF-8" standalone="no"?>
<!-- Created with Inkscape (http://www.inkscape.org/) -->

<svg
   xmlns:dc="http://purl.org/dc/elements/1.1/"
   xmlns:cc="http://creativecommons.org/ns#"
   xmlns:rdf="http://www.w3.org/1999/02/22-rdf-syntax-ns#"
   xmlns:svg="http://www.w3.org/2000/svg"
   xmlns="http://www.w3.org/2000/svg"
   xmlns:sodipodi="http://sodipodi.sourceforge.net/DTD/sodipodi-0.dtd"
   xmlns:inkscape="http://www.inkscape.org/namespaces/inkscape"
   width="210mm"
   height="297mm"
   id="svg3092"
   version="1.1"
   inkscape:version="0.48.3.1 r9886"
   sodipodi:docname="camera.svg">
  <defs
     id="defs3094" />
  <sodipodi:namedview
     id="base"
     pagecolor="#ffffff"
     bordercolor="#666666"
     borderopacity="1.0"
     inkscape:pageopacity="0.0"
     inkscape:pageshadow="2"
     inkscape:zoom="1.4"
     inkscape:cx="690.02671"
     inkscape:cy="740.2064"
     inkscape:document-units="px"
     inkscape:current-layer="layer1"
     showgrid="false"
     inkscape:window-width="1366"
     inkscape:window-height="744"
     inkscape:window-x="0"
     inkscape:window-y="24"
     inkscape:window-maximized="1" />
  <metadata
     id="metadata3097">
    <rdf:RDF>
      <cc:Work
         rdf:about="">
        <dc:format>image/svg+xml</dc:format>
        <dc:type
           rdf:resource="http://purl.org/dc/dcmitype/StillImage" />
        <dc:title></dc:title>
      </cc:Work>
    </rdf:RDF>
  </metadata>
  <g
     inkscape:label="Capa 1"
     inkscape:groupmode="layer"
     id="layer1">
    <g
       transform="matrix(0.88583771,0,0,0.88583771,-743.63571,-2668.3563)"
       id="g5173"
       style="fill:#93e75b;fill-opacity:1"
       inkscape:export-filename="/home/ale/Workspace Colectivo Libre/magictouch/favicon.ico.png"
       inkscape:export-xdpi="6.8800001"
       inkscape:export-ydpi="6.8800001">
      <path
         inkscape:export-ydpi="150"
         inkscape:export-xdpi="150"
         inkscape:export-filename="/media/204A46D84A46AA7C/yulia/Colectivo Libre/cabina_fotografica/logos.png"
         sodipodi:nodetypes="cccsszssccsccscsccccccsccscssccsscsccszccsssssccsccsccsssssssccs"
         style="fill:#93e75b;fill-opacity:1"
         d="m 1402.4732,3394.4824 c -8.5127,-2.0626 -24.3971,-7.4629 -35.2984,-12.0013 -17.5051,-7.2873 -21.0153,-7.92 -30.0412,-5.4138 -31.1616,8.6533 -58.6577,-0.6806 -70.4291,-23.9076 -11.3319,-22.3603 -8.796,-48.0161 6.2285,-63.0134 7.1717,-7.1587 6.3086,-9.782 6.0353,-15.2784 -0.2733,-5.4964 -0.9449,-9.821 4.0163,-19.8291 7.2886,-14.7031 18.3637,-21.6516 39.2477,-24.6239 10.3021,-1.4663 12.8712,-2.9087 13.5428,-7.6038 0.5325,-3.7247 3.8792,-6.8706 9.3714,-8.8083 21.2743,-7.5071 67.4017,-6.4347 75.5936,1.7572 3.6664,3.6664 3.6816,4.8017 0.1365,10.2114 l -3.9879,6.0864 26.0203,1.0453 c 21.079,0.8466 27.8626,2.1839 35.7231,7.042 13.8234,8.5432 19.1001,21.0772 16.908,40.163 -4.0094,34.9076 -18.9692,86.7666 -30.0248,104.0821 -8.753,13.7093 -32.452,17.5032 -63.0426,10.0922 z m 21.0066,-28.0793 c 4.4878,-3.7247 12.1772,-39.0476 12.7527,-58.5815 0.3526,-11.9767 -0.7139,-16.9558 -4.5396,-21.1947 -6.8553,-7.5949 -26.8018,-13.7647 -60.9939,-18.8661 -15.8493,-2.3645 -28.5701,-5.5042 -28.2684,-6.9768 0.8355,-4.0788 61.4781,-2.364 86.2302,2.4381 35.2785,6.8449 38.2538,14.0012 27.9714,67.2827 -3.024,15.67 -5.0659,29.7876 -4.5374,31.3727 1.7715,5.3149 12.2354,-23.213 16.8244,-45.8694 7.4048,-36.5575 2.4018,-55.6737 -16.6541,-63.6356 -5.5728,-2.3284 -23.7967,-4.708 -44.4247,-5.801 -24.3469,-1.2898 -35.3151,-2.8762 -36.0915,-5.2207 -0.6719,-2.0283 2.1932,-4.0297 7.2028,-5.0317 20.9015,-4.1802 3.8003,-10.7437 -20.1852,-7.747 -16.1155,2.0135 -18.7004,5.2553 -6.186,7.7582 14.5903,2.918 7.4757,8.2582 -13.527,10.1536 -29.3262,2.6466 -45.0227,11.6715 -51.7543,29.7578 -1.5551,4.1781 -1.0528,4.3656 4.1856,1.5622 10.3338,-5.5306 34.642,-3.9061 49.1495,3.2847 7.1801,3.5591 11.189,6.9256 12.7643,8.6815 1.5753,1.7559 4.4528,4.5367 6.901,10.5078 2.2893,5.6954 2.4309,5.6031 2.5913,-1.6919 0.1205,-5.5105 -2.564,-10.2947 -9.3923,-16.7348 -5.2593,-4.9602 -10.6814,-9.0182 -12.049,-9.0182 -1.3677,0 -2.4869,-1.205 -2.4869,-2.6776 0,-4.4222 10.9571,-3.0358 23.3258,2.9517 17.0807,8.2686 20.7267,17.0748 18.1303,43.7883 -3.1108,32.0022 -2.7277,38.2732 2.7041,44.2755 8.9534,9.8933 31.2563,12.7848 40.3569,5.2322 z m -90.7074,-4.2905 c 10.9141,-5.1789 21.2417,-19.7354 23.4493,-33.0509 0.8543,-5.1543 -0.03,-15.396 -1.9638,-22.7593 -3.3608,-12.7912 -4.1204,-13.59 -17.0498,-17.9246 -7.4426,-2.4952 -15.9843,-3.8955 -18.9809,-3.1121 -4.9864,1.3042 -4.622,2.1825 4.2964,10.3557 9.3374,8.557 9.8316,12.9314 9.7452,26.7464 -0.087,13.9616 -1.6344,19.7977 -10.0015,26.9811 -13.2507,11.3761 -27.0061,12.602 -39.3279,2.2339 -12.1447,-10.2189 -10.7448,-16.0342 1.8028,-7.4891 12.0546,8.2094 25.984,7.3009 33.7457,-2.2007 7.2391,-8.8618 4.677,-27.9786 -4.8479,-36.1716 -10.3252,-8.8815 -28.753,-8.5093 -38.0299,0.7676 -6.1779,6.178 -8.5319,9.123 -7.5069,23.2902 1.2228,16.9087 7.0145,22.9472 21.3247,31.7864 10.1223,6.2526 30.7718,6.5132 43.3445,0.547 z"
         id="path5893-8"
         inkscape:connector-curvature="0" />
    </g>
  </g>
</svg>
