<?xml version="1.0" encoding="UTF-8" standalone="no"?>
<!-- Created with Inkscape (http://www.inkscape.org/) -->

<svg
   xmlns:dc="http://purl.org/dc/elements/1.1/"
   xmlns:cc="http://creativecommons.org/ns#"
   xmlns:rdf="http://www.w3.org/1999/02/22-rdf-syntax-ns#"
   xmlns:svg="http://www.w3.org/2000/svg"
   xmlns="http://www.w3.org/2000/svg"
   xmlns:sodipodi="http://sodipodi.sourceforge.net/DTD/sodipodi-0.dtd"
   xmlns:inkscape="http://www.inkscape.org/namespaces/inkscape"
   width="592.9267"
   height="304.55734"
   id="svg5249"
   version="1.1"
   inkscape:version="0.48.3.1 r9886"
   sodipodi:docname="logo_editable.svg"
   inkscape:export-filename="/home/ale/Workspace Colectivo Libre/magictouch/images/logo400.png"
   inkscape:export-xdpi="60.720001"
   inkscape:export-ydpi="60.720001">
  <defs
     id="defs5251" />
  <sodipodi:namedview
     id="base"
     pagecolor="#ffffff"
     bordercolor="#666666"
     borderopacity="1.0"
     inkscape:pageopacity="0.0"
     inkscape:pageshadow="2"
     inkscape:zoom="0.98994949"
     inkscape:cx="354.89401"
     inkscape:cy="98.643103"
     inkscape:document-units="px"
     inkscape:current-layer="layer1"
     showgrid="false"
     inkscape:window-width="1366"
     inkscape:window-height="744"
     inkscape:window-x="0"
     inkscape:window-y="24"
     inkscape:window-maximized="1"
     showguides="true"
     inkscape:guide-bbox="true"
     fit-margin-top="0"
     fit-margin-left="0"
     fit-margin-right="0"
     fit-margin-bottom="0">
    <sodipodi:guide
       orientation="0,1"
       position="190.44818,201.21364"
       id="guide3077" />
  </sodipodi:namedview>
  <metadata
     id="metadata5254">
    <rdf:RDF>
      <cc:Work
         rdf:about="">
        <dc:format>image/svg+xml</dc:format>
        <dc:type
           rdf:resource="http://purl.org/dc/dcmitype/StillImage" />
        <dc:title></dc:title>
      </cc:Work>
    </rdf:RDF>
  </metadata>
  <g
     inkscape:label="Capa 1"
     inkscape:groupmode="layer"
     id="layer1"
     transform="translate(-53.503655,-614.65799)">
    <g
       transform="matrix(0.88583771,0,0,0.88583771,-752.07872,-2091.0443)"
       id="g5173"
       style="fill:#93e75b;fill-opacity:1"
       inkscape:export-filename="/media/204A46D84A46AA7C/yulia/Colectivo Libre/cabina_fotografica/logos_verde.png"
       inkscape:export-xdpi="150"
       inkscape:export-ydpi="150">
      <path
         inkscape:export-ydpi="150"
         inkscape:export-xdpi="150"
         inkscape:export-filename="/media/204A46D84A46AA7C/yulia/Colectivo Libre/cabina_fotografica/logos.png"
         sodipodi:nodetypes="cccsszssccsccscsccccccsccscssccsscsccszccsssssccsccsccsssssssccs"
         style="fill:#93e75b;fill-opacity:1"
         d="m 1402.4732,3394.4824 c -8.5127,-2.0626 -24.3971,-7.4629 -35.2984,-12.0013 -17.5051,-7.2873 -21.0153,-7.92 -30.0412,-5.4138 -31.1616,8.6533 -58.6577,-0.6806 -70.4291,-23.9076 -11.3319,-22.3603 -8.796,-48.0161 6.2285,-63.0134 7.1717,-7.1587 6.3086,-9.782 6.0353,-15.2784 -0.2733,-5.4964 -0.9449,-9.821 4.0163,-19.8291 7.2886,-14.7031 18.3637,-21.6516 39.2477,-24.6239 10.3021,-1.4663 12.8712,-2.9087 13.5428,-7.6038 0.5325,-3.7247 3.8792,-6.8706 9.3714,-8.8083 21.2743,-7.5071 67.4017,-6.4347 75.5936,1.7572 3.6664,3.6664 3.6816,4.8017 0.1365,10.2114 l -3.9879,6.0864 26.0203,1.0453 c 21.079,0.8466 27.8626,2.1839 35.7231,7.042 13.8234,8.5432 19.1001,21.0772 16.908,40.163 -4.0094,34.9076 -18.9692,86.7666 -30.0248,104.0821 -8.753,13.7093 -32.452,17.5032 -63.0426,10.0922 z m 21.0066,-28.0793 c 4.4878,-3.7247 12.1772,-39.0476 12.7527,-58.5815 0.3526,-11.9767 -0.7139,-16.9558 -4.5396,-21.1947 -6.8553,-7.5949 -26.8018,-13.7647 -60.9939,-18.8661 -15.8493,-2.3645 -28.5701,-5.5042 -28.2684,-6.9768 0.8355,-4.0788 61.4781,-2.364 86.2302,2.4381 35.2785,6.8449 38.2538,14.0012 27.9714,67.2827 -3.024,15.67 -5.0659,29.7876 -4.5374,31.3727 1.7715,5.3149 12.2354,-23.213 16.8244,-45.8694 7.4048,-36.5575 2.4018,-55.6737 -16.6541,-63.6356 -5.5728,-2.3284 -23.7967,-4.708 -44.4247,-5.801 -24.3469,-1.2898 -35.3151,-2.8762 -36.0915,-5.2207 -0.6719,-2.0283 2.1932,-4.0297 7.2028,-5.0317 20.9015,-4.1802 3.8003,-10.7437 -20.1852,-7.747 -16.1155,2.0135 -18.7004,5.2553 -6.186,7.7582 14.5903,2.918 7.4757,8.2582 -13.527,10.1536 -29.3262,2.6466 -45.0227,11.6715 -51.7543,29.7578 -1.5551,4.1781 -1.0528,4.3656 4.1856,1.5622 10.3338,-5.5306 34.642,-3.9061 49.1495,3.2847 7.1801,3.5591 11.189,6.9256 12.7643,8.6815 1.5753,1.7559 4.4528,4.5367 6.901,10.5078 2.2893,5.6954 2.4309,5.6031 2.5913,-1.6919 0.1205,-5.5105 -2.564,-10.2947 -9.3923,-16.7348 -5.2593,-4.9602 -10.6814,-9.0182 -12.049,-9.0182 -1.3677,0 -2.4869,-1.205 -2.4869,-2.6776 0,-4.4222 10.9571,-3.0358 23.3258,2.9517 17.0807,8.2686 20.7267,17.0748 18.1303,43.7883 -3.1108,32.0022 -2.7277,38.2732 2.7041,44.2755 8.9534,9.8933 31.2563,12.7848 40.3569,5.2322 z m -90.7074,-4.2905 c 10.9141,-5.1789 21.2417,-19.7354 23.4493,-33.0509 0.8543,-5.1543 -0.03,-15.396 -1.9638,-22.7593 -3.3608,-12.7912 -4.1204,-13.59 -17.0498,-17.9246 -7.4426,-2.4952 -15.9843,-3.8955 -18.9809,-3.1121 -4.9864,1.3042 -4.622,2.1825 4.2964,10.3557 9.3374,8.557 9.8316,12.9314 9.7452,26.7464 -0.087,13.9616 -1.6344,19.7977 -10.0015,26.9811 -13.2507,11.3761 -27.0061,12.602 -39.3279,2.2339 -12.1447,-10.2189 -10.7448,-16.0342 1.8028,-7.4891 12.0546,8.2094 25.984,7.3009 33.7457,-2.2007 7.2391,-8.8618 4.677,-27.9786 -4.8479,-36.1716 -10.3252,-8.8815 -28.753,-8.5093 -38.0299,0.7676 -6.1779,6.178 -8.5319,9.123 -7.5069,23.2902 1.2228,16.9087 7.0145,22.9472 21.3247,31.7864 10.1223,6.2526 30.7718,6.5132 43.3445,0.547 z"
         id="path5893-8"
         inkscape:connector-curvature="0" />
      <path
         inkscape:export-ydpi="150"
         inkscape:export-xdpi="150"
         inkscape:export-filename="/media/204A46D84A46AA7C/yulia/Colectivo Libre/cabina_fotografica/logos.png"
         inkscape:connector-curvature="0"
         id="path5842-26-00-0-0"
         d="m 982.81261,3331.6641 0,2.2187 27.62499,0 0,-2.2187 -27.62499,0 z m 54.06249,0 0,2.2187 231.4687,0 0,-2.2187 -231.4687,0 z"
         style="font-size:medium;font-style:normal;font-variant:normal;font-weight:normal;font-stretch:normal;text-indent:0;text-align:start;text-decoration:none;line-height:normal;letter-spacing:normal;word-spacing:normal;text-transform:none;direction:ltr;block-progression:tb;writing-mode:lr-tb;text-anchor:start;baseline-shift:baseline;color:#000000;fill:#93e75b;fill-opacity:1;fill-rule:nonzero;stroke:none;stroke-width:2.22815323;marker:none;visibility:visible;display:inline;overflow:visible;enable-background:accumulate;font-family:Sans;-inkscape-font-specification:Sans" />
    </g>
    <g
       style="font-size:41.45195007px;font-style:normal;font-variant:normal;font-weight:bold;font-stretch:normal;text-align:start;line-height:56.99999928%;letter-spacing:0px;word-spacing:0px;text-anchor:start;fill:#4fa600;fill-opacity:1;stroke:none;font-family:ZnikomitNo24;-inkscape-font-specification:Sans Bold"
       id="text5068-76-5-4-0-4"
       transform="translate(95.842661,-57.578695)">
      <path
         d="m 51.484336,916.32125 c -10e-7,-0.0675 0.01349,-0.47902 0.04048,-1.23465 0.04048,-0.75563 0.107947,-1.7609 0.202403,-3.01579 0.09445,-1.25489 0.22264,-2.69869 0.384563,-4.33141 0.16192,-1.64619 0.371069,-3.3801 0.627447,-5.20173 0.269867,-1.8351 0.580216,-3.71069 0.93105,-5.62678 0.36432,-1.92955 0.789364,-3.80514 1.275133,-5.62678 0.499253,-1.82159 1.065978,-3.53526 1.700178,-5.14101 0.634186,-1.61919 1.342592,-3.02925 2.125222,-4.2302 0.796105,-1.21438 1.679927,-2.17242 2.651467,-2.87411 0.971518,-0.70163 2.037501,-1.05246 3.197953,-1.0525 0.458763,4e-5 0.937781,0.081 1.437055,0.24289 0.512736,0.16196 0.97826,0.42508 1.396575,0.78936 0.41828,0.36436 0.762363,0.85013 1.03225,1.4573 0.283345,0.59375 0.425026,1.32914 0.425045,2.20618 -1.9e-5,0.79615 -0.128207,1.71371 -0.384564,2.75267 -0.242901,1.02553 -0.593731,2.12525 -1.052491,3.29916 -0.445302,1.17395 -0.978293,2.39511 -1.598977,3.66347 -0.607221,1.26841 -1.275147,2.5368 -2.00378,3.80516 -0.728661,1.25491 -1.497788,2.49631 -2.307384,3.7242 -0.796126,1.21443 -1.61248,2.35463 -2.449066,3.4206 l -0.04048,0.32384 c 0.26986,-0.13492 0.472262,-0.22263 0.607206,-0.26312 0.134925,-0.0405 0.276606,-0.0607 0.425044,-0.0607 0.175405,10e-6 0.317087,0.0203 0.425045,0.0607 0.107937,0.027 0.202391,0.0607 0.283363,0.1012 0.09444,0.0405 0.188898,0.081 0.283363,0.12144 0.09444,0.027 0.209137,0.0405 0.344083,0.0405 1.335841,10e-6 2.516519,-0.15516 3.542037,-0.46552 1.025488,-0.32383 1.88907,-0.68141 2.590747,-1.07274 0.823084,-0.44527 1.538237,-0.96476 2.145462,-1.55849 l -0.445284,4.91837 c -0.890588,0.48577 -1.821637,0.86359 -2.793149,1.13345 -0.971546,0.26988 -1.868861,0.47228 -2.691948,0.60721 -0.95805,0.14843 -1.909339,0.24289 -2.85387,0.28336 0.485754,0.89058 0.924291,1.81488 1.315614,2.77291 0.337324,0.82311 0.640927,1.74741 0.910809,2.77291 0.28335,1.01201 0.425031,2.03751 0.425045,3.07651 -1.4e-5,0.12144 -0.02025,0.37782 -0.06072,0.76913 -0.027,0.39131 -0.08097,0.87032 -0.161922,1.43705 -0.08097,0.56673 -0.195668,1.19417 -0.344083,1.88234 -0.148441,0.68816 -0.344096,1.38308 -0.586966,2.08474 -0.229402,0.70166 -0.512764,1.37633 -0.850089,2.02403 -0.337348,0.66117 -0.735405,1.24138 -1.194173,1.74065 -0.445294,0.51274 -0.964792,0.92429 -1.558496,1.23466 -0.580227,0.31033 -1.241407,0.46551 -1.98354,0.46552 -0.742147,-10e-6 -1.389833,-0.16868 -1.943061,-0.506 -0.553236,-0.33735 -1.025507,-0.79613 -1.416814,-1.37634 -0.391314,-0.56673 -0.721904,-1.23466 -0.991771,-2.00378 -0.256378,-0.75564 -0.45878,-1.5585 -0.607206,-2.40858 -0.14843,-0.8501 -0.256377,-1.72043 -0.323843,-2.61099 -0.05398,-0.87708 -0.08096,-1.72717 -0.08096,-2.55027 m 5.404136,-9.7153 c -0.05398,1e-5 -0.114701,0.15518 -0.182162,0.46553 -0.06747,0.29686 -0.134941,0.68817 -0.202402,1.17393 -0.05398,0.47228 -0.107954,1.00527 -0.161922,1.59897 -0.05398,0.59372 -0.101207,1.18069 -0.141681,1.7609 -0.04049,0.56673 -0.07422,1.09972 -0.101201,1.59898 -0.02699,0.48577 -0.04049,0.87033 -0.04048,1.15369 -6e-6,1.98354 0.03373,3.56228 0.101201,4.73621 0.08096,1.17393 0.175409,2.0645 0.283363,2.67171 0.121435,0.6072 0.249623,0.99851 0.384564,1.17393 0.148422,0.1889 0.29685,0.28336 0.445285,0.28336 0.458771,0 0.823094,-0.20915 1.092971,-0.62744 0.283355,-0.41831 0.492503,-0.9513 0.627447,-1.59898 0.148419,-0.6342 0.242873,-1.33586 0.283363,-2.10498 0.05396,-0.75564 0.08095,-1.48429 0.08096,-2.18594 -10e-6,-0.47228 -0.04049,-1.0525 -0.121442,-1.74066 -0.06748,-0.68817 -0.168677,-1.40332 -0.303603,-2.14546 -0.12145,-0.75564 -0.269878,-1.50452 -0.445284,-2.24667 -0.16193,-0.74213 -0.337345,-1.40331 -0.526246,-1.98354 -0.175423,-0.5937 -0.357584,-1.07272 -0.546485,-1.43705 -0.188916,-0.36432 -0.364331,-0.54648 -0.526246,-0.54649 m 4.918371,-22.08207 c -0.782632,1.94309 -1.396585,3.65676 -1.841859,5.14102 -0.445294,1.47081 -0.782631,2.77967 -1.012011,3.9266 -0.229397,1.14696 -0.391319,2.15897 -0.485765,3.03603 -0.09446,0.8636 -0.188916,1.66646 -0.283363,2.40858 0.823093,-1.55173 1.652941,-3.07649 2.489546,-4.57428 0.836584,-1.51125 1.592218,-2.90782 2.266904,-4.18973 0.67466,-1.29535 1.221145,-2.43554 1.639457,-3.42059 0.431776,-0.985 0.647671,-1.73388 0.647687,-2.24667 -1.6e-5,-0.71512 -0.101216,-1.23462 -0.303604,-1.55849 -0.202416,-0.33731 -0.479032,-0.50598 -0.829848,-0.50601 -0.620713,3e-5 -1.092984,0.1687 -1.416815,0.50601 -0.323855,0.32387 -0.613965,0.81638 -0.870329,1.47753"
         style="fill:#4fa600;font-family:Pacifico;-inkscape-font-specification:Pacifico Bold"
         id="path6443"
         inkscape:connector-curvature="0" />
      <path
         d="m 79.780149,900.39221 c 0.391295,0.78263 0.681405,1.61248 0.870329,2.48954 0.202386,0.8636 0.303587,1.69344 0.303603,2.48955 -1.6e-5,0.79612 -0.08772,1.59898 -0.263122,2.40858 -0.175431,0.80962 -0.431807,1.59224 -0.769128,2.34787 -0.323859,0.75564 -0.728662,1.46404 -1.214413,2.12522 -0.472285,0.66118 -1.01877,1.23465 -1.639457,1.72042 -0.607218,0.48576 -1.275144,0.87033 -2.003781,1.15369 -0.728657,0.28336 -1.504531,0.42504 -2.327624,0.42504 -1.187432,0 -2.206189,-0.25637 -3.056272,-0.76912 -0.836599,-0.52625 -1.524766,-1.20767 -2.064501,-2.04427 -0.539741,-0.83659 -0.937798,-1.78113 -1.194172,-2.83362 -0.242884,-1.05249 -0.364326,-2.11847 -0.364324,-3.19796 -2e-6,-1.48427 0.222641,-2.86735 0.667927,-4.14924 0.445282,-1.29536 1.079474,-2.41532 1.902579,-3.35988 0.836591,-0.95801 1.855347,-1.7069 3.056272,-2.24666 1.200911,-0.55321 2.550257,-0.82983 4.048042,-0.82985 1.281868,2e-5 2.482786,0.20242 3.602757,0.60721 1.119943,0.39133 2.165686,0.92432 3.137233,1.59898 0.985005,0.66119 1.895813,1.42357 2.732428,2.28714 0.850068,0.8636 1.639435,1.75416 2.368105,2.67171 l -0.384564,2.85387 c -0.364346,-0.48576 -0.856857,-1.012 -1.477535,-1.57874 -0.62072,-0.56671 -1.2819,-1.11995 -1.983541,-1.6597 -0.688185,-0.53972 -1.369605,-1.04573 -2.044261,-1.51801 -0.67469,-0.48575 -1.254909,-0.89056 -1.740658,-1.21442 l -0.161922,0.22265 M 73.525924,911.666 c 0.458769,10e-6 0.904053,-0.22938 1.335854,-0.68816 0.431781,-0.47227 0.809598,-1.05924 1.133452,-1.7609 0.323832,-0.71515 0.580207,-1.49777 0.769128,-2.34787 0.20239,-0.86357 0.303591,-1.68667 0.303603,-2.4693 -1.2e-5,-0.62069 -0.04724,-1.19416 -0.141681,-1.72042 -0.09447,-0.53973 -0.236148,-1.00525 -0.425045,-1.39657 -0.18892,-0.3913 -0.431802,-0.70165 -0.728647,-0.93105 -0.296868,-0.22938 -0.654444,-0.34407 -1.072732,-0.34409 -0.553241,2e-5 -1.079486,0.23615 -1.578736,0.70841 -0.499266,0.47229 -0.937804,1.07949 -1.315614,1.82162 -0.377824,0.72866 -0.67468,1.53827 -0.890569,2.42882 -0.215901,0.89058 -0.323849,1.74742 -0.323843,2.57051 -6e-6,0.56673 0.05397,1.09973 0.161921,1.59898 0.107942,0.49926 0.27661,0.9378 0.506006,1.31561 0.229382,0.36433 0.532985,0.66119 0.910809,0.89057 0.37781,0.2159 0.829841,0.32385 1.356094,0.32384"
         style="fill:#4fa600;font-family:Pacifico;-inkscape-font-specification:Pacifico Bold"
         id="path6445"
         inkscape:connector-curvature="0" />
      <path
         d="m 101.84198,911.01832 c -1.29539,0.75564 -2.449084,1.41681 -3.461077,1.98354 -1.012026,0.56673 -1.916088,1.039 -2.712188,1.41681 -0.782634,0.37782 -1.484294,0.66118 -2.104982,0.85009 -0.607217,0.18891 -1.160449,0.28336 -1.659698,0.28336 -1.025512,0 -1.929574,-0.31035 -2.712188,-0.93105 -0.782627,-0.62069 -1.43706,-1.51126 -1.9633,-2.6717 -0.52625,-1.17393 -0.924307,-2.59074 -1.194172,-4.25045 -0.25638,-1.65969 -0.384568,-3.52853 -0.384564,-5.60654 -4e-6,-0.80959 0.03373,-1.67317 0.101201,-2.59074 0.06746,-0.91754 0.161918,-1.82835 0.283363,-2.73243 -0.404808,-0.054 -0.721904,-0.10118 -0.95129,-0.14168 -0.215898,-0.054 -0.452034,-0.10118 -0.708408,-0.14168 -0.242884,-0.054 -0.55998,-0.10793 -0.95129,-0.16193 -0.377817,-0.054 -0.931049,-0.12142 -1.659697,-0.2024 -0.323842,-0.0405 -0.573471,-0.11467 -0.748888,-0.22264 -0.175413,-0.12142 -0.303601,-0.25636 -0.384564,-0.4048 -0.08096,-0.16191 -0.128186,-0.32383 -0.141681,-0.48577 -0.01349,-0.17539 -0.02024,-0.32382 -0.02024,-0.44528 2e-6,-0.26985 0.134936,-0.47225 0.404804,-0.60721 0.256377,-0.14841 0.593714,-0.25635 1.01201,-0.32384 0.404805,-0.0675 0.850089,-0.10118 1.335854,-0.1012 0.499258,-0.0135 0.971529,-0.0135 1.416815,0 0.458775,0.0135 0.863579,0.027 1.214413,0.0405 0.36432,2e-5 0.613949,-0.0135 0.748887,-0.0405 0.36432,-1.8216 0.823097,-3.5825 1.376335,-5.2827 0.566719,-1.71364 1.194165,-3.23166 1.882339,-4.55405 0.701653,-1.33582 1.464033,-2.4018 2.287144,-3.19795 0.823091,-0.80957 1.686673,-1.21438 2.590747,-1.21441 0.580206,3e-5 1.106451,0.16196 1.578736,0.48576 0.485751,0.32388 0.897301,0.75567 1.234653,1.29538 0.337321,0.53977 0.593697,1.17396 0.769128,1.90258 0.188893,0.71518 0.283347,1.46407 0.283363,2.24666 -1.6e-5,0.66121 -0.09447,1.36287 -0.283363,2.10498 -0.188924,0.72868 -0.4453,1.47756 -0.769128,2.24666 -0.323858,0.75566 -0.708422,1.52479 -1.153692,2.30739 -0.431805,0.78264 -0.890582,1.55852 -1.376334,2.32762 0.121428,0.0135 0.32383,0.027 0.607206,0.0405 0.28335,2e-5 0.607193,0.007 0.97153,0.0202 0.377803,0.0135 0.782607,0.0338 1.214413,0.0607 0.431775,0.0135 0.850072,0.027 1.254893,0.0405 0.404787,0.0135 0.782604,0.027 1.13345,0.0405 0.35081,0.0135 0.64092,0.027 0.87033,0.0405 0.26985,0.0135 0.46551,0.14845 0.58697,0.40481 0.12142,0.2564 0.18214,0.58024 0.18216,0.97153 -2e-5,0.47229 -0.13496,0.85685 -0.40481,1.15369 -0.26988,0.29688 -0.56674,0.4453 -0.89056,0.44529 l -7.772246,0 c -0.39132,0.53975 -0.789377,1.07274 -1.194172,1.59897 -0.391319,0.51277 -0.755643,0.97829 -1.092971,1.39658 -0.05398,0.83661 -0.101209,1.65971 -0.141682,2.4693 -0.0135,0.35085 -0.02699,0.71517 -0.04048,1.09297 -0.0135,0.36434 -0.02699,0.72866 -0.04048,1.09298 -0.0135,0.36433 -0.02699,0.71516 -0.04048,1.05249 -8e-6,0.33734 -8e-6,0.64769 0,0.93105 -8e-6,0.72865 0.06746,1.3426 0.202402,1.84185 0.134927,0.49927 0.330582,0.91082 0.586966,1.23466 0.256367,0.31035 0.566717,0.53974 0.93105,0.68816 0.377807,0.13494 0.796104,0.20241 1.254893,0.20241 0.283352,0 0.634182,-0.0675 1.052491,-0.20241 0.431779,-0.13492 0.897303,-0.31709 1.396574,-0.54648 0.512739,-0.24288 1.04573,-0.52624 1.598977,-0.85009 0.56671,-0.32384 1.119942,-0.67467 1.659697,-1.05249 0.553215,-0.3913 1.07946,-0.79611 1.578731,-1.21441 0.49924,-0.43179 0.95128,-0.87032 1.3561,-1.31562 l 0,5.1815 m -6.476868,-25.62411 c -1.3e-5,-0.1484 -0.01351,-0.31032 -0.04048,-0.48576 -0.01351,-0.18888 -0.05399,-0.3643 -0.121441,-0.52625 -0.06748,-0.16189 -0.175428,-0.29682 -0.323844,-0.4048 -0.134947,-0.10792 -0.330602,-0.16189 -0.586966,-0.16193 -0.350842,4e-5 -0.708418,0.31039 -1.072731,0.93105 -0.350841,0.62073 -0.694924,1.41685 -1.032251,2.38835 -0.323852,0.95806 -0.634202,2.0173 -0.931049,3.17771 -0.283372,1.16046 -0.546494,2.28717 -0.789368,3.38012 0.202393,0.027 0.404795,0.054 0.607206,0.081 0.202393,0.0135 0.411542,0.0338 0.627446,0.0607 0.404795,-0.68815 0.823092,-1.43029 1.254893,-2.22642 0.445274,-0.80959 0.843331,-1.59896 1.194173,-2.36811 0.350818,-0.78259 0.640927,-1.51124 0.870329,-2.18594 0.229376,-0.67465 0.34407,-1.22788 0.344083,-1.6597"
         style="fill:#4fa600;font-family:Pacifico;-inkscape-font-specification:Pacifico Bold"
         id="path6447"
         inkscape:connector-curvature="0" />
      <path
         d="m 113.62178,900.39221 c 0.3913,0.78263 0.68141,1.61248 0.87033,2.48954 0.20239,0.8636 0.30359,1.69344 0.3036,2.48955 -1e-5,0.79612 -0.0877,1.59898 -0.26312,2.40858 -0.17543,0.80962 -0.43181,1.59224 -0.76913,2.34787 -0.32385,0.75564 -0.72866,1.46404 -1.21441,2.12522 -0.47228,0.66118 -1.01877,1.23465 -1.63946,1.72042 -0.60721,0.48576 -1.27514,0.87033 -2.00378,1.15369 -0.72865,0.28336 -1.50453,0.42504 -2.32762,0.42504 -1.18743,0 -2.20619,-0.25637 -3.05627,-0.76912 -0.8366,-0.52625 -1.52477,-1.20767 -2.0645,-2.04427 -0.53975,-0.83659 -0.9378,-1.78113 -1.19418,-2.83362 -0.24288,-1.05249 -0.364322,-2.11847 -0.36432,-3.19796 -2e-6,-1.48427 0.22264,-2.86735 0.66793,-4.14924 0.44528,-1.29536 1.07947,-2.41532 1.90258,-3.35988 0.83659,-0.95801 1.85534,-1.7069 3.05627,-2.24666 1.20091,-0.55321 2.55025,-0.82983 4.04804,-0.82985 1.28187,2e-5 2.48279,0.20242 3.60276,0.60721 1.11994,0.39133 2.16568,0.92432 3.13723,1.59898 0.985,0.66119 1.89581,1.42357 2.73243,2.28714 0.85007,0.8636 1.63943,1.75416 2.3681,2.67171 l -0.38456,2.85387 c -0.36435,-0.48576 -0.85686,-1.012 -1.47754,-1.57874 -0.62072,-0.56671 -1.2819,-1.11995 -1.98354,-1.6597 -0.68818,-0.53972 -1.3696,-1.04573 -2.04426,-1.51801 -0.67469,-0.48575 -1.25491,-0.89056 -1.74066,-1.21442 l -0.16192,0.22265 m -6.25422,11.27379 c 0.45877,10e-6 0.90405,-0.22938 1.33585,-0.68816 0.43178,-0.47227 0.8096,-1.05924 1.13345,-1.7609 0.32383,-0.71515 0.58021,-1.49777 0.76913,-2.34787 0.20239,-0.86357 0.30359,-1.68667 0.3036,-2.4693 -10e-6,-0.62069 -0.0472,-1.19416 -0.14168,-1.72042 -0.0945,-0.53973 -0.23615,-1.00525 -0.42504,-1.39657 -0.18892,-0.3913 -0.4318,-0.70165 -0.72865,-0.93105 -0.29687,-0.22938 -0.65444,-0.34407 -1.07273,-0.34409 -0.55324,2e-5 -1.07949,0.23615 -1.57874,0.70841 -0.49926,0.47229 -0.9378,1.07949 -1.31561,1.82162 -0.37782,0.72866 -0.67468,1.53827 -0.89057,2.42882 -0.2159,0.89058 -0.32385,1.74742 -0.32384,2.57051 -1e-5,0.56673 0.054,1.09973 0.16192,1.59898 0.10794,0.49926 0.27661,0.9378 0.506,1.31561 0.22939,0.36433 0.53299,0.66119 0.91081,0.89057 0.37781,0.2159 0.82984,0.32385 1.3561,0.32384"
         style="fill:#4fa600;font-family:Pacifico;-inkscape-font-specification:Pacifico Bold"
         id="path6449"
         inkscape:connector-curvature="0" />
      <path
         d="m 125.09798,915.55212 c -1.24141,0 -2.33438,-0.22938 -3.27892,-0.68816 -0.93105,-0.45878 -1.71367,-1.07273 -2.34786,-1.84186 -0.6342,-0.76913 -1.11321,-1.6597 -1.43706,-2.67171 -0.32384,-1.012 -0.48576,-2.06449 -0.48576,-3.15747 0,-0.78262 0.081,-1.59897 0.24288,-2.44907 0.16192,-0.85008 0.39806,-1.67992 0.70841,-2.48954 0.32384,-0.82309 0.71515,-1.60571 1.17393,-2.34787 0.47227,-0.74212 1.01201,-1.38981 1.61922,-1.94306 0.62069,-0.56671 1.30886,-1.01199 2.0645,-1.33585 0.75563,-0.33732 1.58547,-0.50599 2.48955,-0.50601 0.76911,2e-5 1.47752,0.12146 2.12522,0.36433 0.66117,0.2294 1.22114,0.55325 1.67993,0.97153 0.47226,0.41831 0.83659,0.91757 1.09298,1.49777 0.26985,0.56674 0.40479,1.1807 0.4048,1.84186 -1e-5,0.45879 -0.0607,0.91082 -0.18216,1.3561 -0.12146,0.44529 -0.30362,0.8501 -0.54649,1.21441 -0.2294,0.35084 -0.51276,0.6342 -0.85009,0.85009 -0.33735,0.2159 -0.71516,0.32385 -1.13345,0.32384 -0.6342,10e-6 -1.0525,-0.16866 -1.25489,-0.50601 -0.18892,-0.33732 -0.28337,-0.80284 -0.28336,-1.39657 -1e-5,-0.24287 0.007,-0.49925 0.0202,-0.76913 0.027,-0.26985 0.0405,-0.51274 0.0405,-0.72865 -1e-5,-0.32382 -0.0338,-0.59369 -0.1012,-0.8096 -0.0675,-0.21588 -0.21591,-0.32383 -0.44529,-0.32385 -0.55324,2e-5 -1.02551,0.13495 -1.41681,0.40481 -0.39132,0.25639 -0.72866,0.60047 -1.01201,1.03225 -0.26988,0.41831 -0.48578,0.89733 -0.64769,1.43705 -0.16193,0.52626 -0.29012,1.05251 -0.38456,1.57874 -0.0945,0.52625 -0.15519,1.03226 -0.18217,1.51801 -0.027,0.47229 -0.0405,0.87034 -0.0405,1.19418 0,0.48577 0.0405,0.99177 0.12144,1.51801 0.0945,0.52625 0.26312,1.01202 0.50601,1.4573 0.24287,0.43179 0.57346,0.79612 0.99177,1.09297 0.41829,0.28337 0.95803,0.42505 1.61922,0.42504 0.64767,10e-6 1.36283,-0.19565 2.14546,-0.58696 0.78261,-0.4048 1.56523,-0.91081 2.34786,-1.51802 0.7961,-0.6072 1.55174,-1.27512 2.26691,-2.00378 0.71513,-0.72864 1.32909,-1.4168 1.84186,-2.0645 l 1.39657,2.34786 c -1.01203,1.44381 -2.105,2.73244 -3.27891,3.86588 -0.49928,0.48577 -1.04576,0.95804 -1.63946,1.41682 -0.58023,0.45878 -1.19419,0.87033 -1.84186,1.23465 -0.63421,0.35083 -1.30213,0.64094 -2.00378,0.87033 -0.68818,0.2159 -1.38984,0.32384 -2.10498,0.32384"
         style="fill:#4fa600;font-family:Pacifico;-inkscape-font-specification:Pacifico Bold"
         id="path6451"
         inkscape:connector-curvature="0" />
      <path
         d="m 154.91181,910.59327 c -0.31037,0.4318 -0.72867,0.9378 -1.25489,1.51802 -0.51278,0.58022 -1.093,1.13345 -1.74066,1.6597 -0.64771,0.52624 -1.34262,0.97153 -2.08474,1.33585 -0.74216,0.36432 -1.4843,0.54648 -2.22643,0.54649 -0.89058,-10e-6 -1.63272,-0.28337 -2.22642,-0.85009 -0.59373,-0.58022 -1.10648,-1.41682 -1.53826,-2.50979 -0.32385,0.37782 -0.72191,0.76238 -1.19417,1.15369 -0.47228,0.39131 -0.99178,0.74889 -1.55849,1.07273 -0.55325,0.31035 -1.13346,0.56673 -1.74066,0.76913 -0.60722,0.2024 -1.21442,0.3036 -1.82162,0.3036 -0.64769,0 -1.28189,-0.12818 -1.90258,-0.38456 -0.60721,-0.26987 -1.14695,-0.64769 -1.61922,-1.13345 -0.47227,-0.49926 -0.85009,-1.09972 -1.13345,-1.80138 -0.28336,-0.71515 -0.42504,-1.51801 -0.42504,-2.40858 0,-1.01201 0.14168,-2.05101 0.42504,-3.117 0.28336,-1.06597 0.67467,-2.10497 1.17393,-3.11699 0.49926,-1.02549 1.08622,-1.99027 1.7609,-2.89435 0.68816,-0.90405 1.43705,-1.69341 2.24666,-2.3681 0.80961,-0.67466 1.65969,-1.20765 2.55027,-1.59898 0.90405,-0.40479 1.82161,-0.60719 2.75267,-0.60721 0.31034,2e-5 0.55322,0.0607 0.72865,0.18216 0.1754,0.12147 0.31708,0.26315 0.42504,0.42505 0.12143,0.14845 0.23612,0.29687 0.34409,0.44528 0.10793,0.14845 0.24286,0.2564 0.4048,0.32385 0.16191,0.0675 0.32383,0.11471 0.48576,0.14168 0.1754,0.0135 0.35082,0.0203 0.52625,0.0202 0.14841,2e-5 0.29684,2e-5 0.44528,0 0.16191,-0.0135 0.31709,-0.0202 0.46553,-0.0202 0.20239,2e-5 0.39129,0.0203 0.56673,0.0607 0.17539,0.0405 0.33057,0.1282 0.46552,0.26312 0.13492,0.13495 0.23612,0.32386 0.3036,0.56673 0.081,0.2429 0.12143,0.57349 0.12144,0.99177 -1e-5,0.6477 -0.0675,1.3696 -0.2024,2.1657 -0.13495,0.78264 -0.28338,1.59224 -0.44528,2.42883 -0.16194,0.82311 -0.31037,1.65296 -0.44529,2.48954 -0.13495,0.82311 -0.20242,1.60573 -0.2024,2.34787 -2e-5,0.6342 0.054,1.13345 0.16192,1.49777 0.12143,0.35084 0.37106,0.52625 0.74889,0.52625 0.28335,0 0.5802,-0.0675 0.89057,-0.20241 0.31033,-0.14842 0.62068,-0.33733 0.93105,-0.56672 0.32382,-0.22938 0.64092,-0.48576 0.95129,-0.76913 0.32382,-0.29685 0.62743,-0.60045 0.91081,-0.91081 0.66116,-0.72864 1.32908,-1.55174 2.00378,-2.4693 l 0.97153,4.49332 m -17.28514,-1.59897 c -1e-5,0.33734 0.0202,0.66793 0.0607,0.99177 0.054,0.31035 0.14168,0.59371 0.26312,0.85009 0.12144,0.24288 0.28336,0.44528 0.48577,0.6072 0.20239,0.14843 0.45877,0.22265 0.76913,0.22264 0.49925,10e-6 0.95128,-0.21589 1.35609,-0.64768 0.4048,-0.43179 0.75563,-0.95129 1.05249,-1.5585 0.29685,-0.6072 0.53298,-1.23464 0.70841,-1.88234 0.1889,-0.64768 0.31034,-1.18742 0.36432,-1.61922 l 1.23466,-5.95062 c -0.55325,2e-5 -1.09299,0.1417 -1.61922,0.42505 -0.52626,0.26988 -1.02552,0.64095 -1.49778,1.11321 -0.45878,0.47228 -0.88383,1.01202 -1.27513,1.61922 -0.39132,0.60721 -0.72866,1.24815 -1.01201,1.92282 -0.28337,0.66119 -0.50601,1.32911 -0.66793,2.00378 -0.14843,0.67468 -0.22265,1.30887 -0.22264,1.90258"
         style="fill:#4fa600;font-family:Pacifico;-inkscape-font-specification:Pacifico Bold"
         id="path6453"
         inkscape:connector-curvature="0" />
      <path
         d="m 159.08129,899.25875 c 0.75563,-0.94452 1.44379,-1.70015 2.0645,-2.2669 0.63418,-0.5802 1.26163,-0.87031 1.88234,-0.87033 0.7961,2e-5 1.50451,0.17544 2.12522,0.52625 0.62069,0.35085 1.14693,0.81637 1.57874,1.39657 0.43177,0.58024 0.76236,1.24816 0.99177,2.00378 0.22937,0.75565 0.34407,1.54502 0.34408,2.36811 -1e-5,0.68818 -0.027,1.34261 -0.081,1.9633 -0.054,0.60721 -0.15519,1.20767 -0.3036,1.80138 -0.13495,0.58022 -0.33061,1.16044 -0.58697,1.74065 -0.24289,0.58023 -0.56674,1.18069 -0.97153,1.80138 0.48575,-0.28335 0.97826,-0.55997 1.47754,-0.82985 0.49924,-0.26986 0.9985,-0.56671 1.49778,-0.89056 0.51273,-0.32384 1.02548,-0.68142 1.53825,-1.07274 0.51273,-0.40479 1.03898,-0.87706 1.57874,-1.41681 l 1.55849,3.33963 c -0.74216,0.67468 -1.4843,1.26165 -2.22642,1.7609 -0.72867,0.49927 -1.4843,0.9378 -2.2669,1.31562 -0.76915,0.36432 -1.57876,0.68142 -2.42883,0.95129 -0.83661,0.26987 -1.72718,0.51275 -2.67171,0.72864 -0.2294,0.22939 -0.5465,0.45878 -0.95129,0.68817 -0.39132,0.22939 -0.78263,0.43854 -1.17393,0.62745 -0.44529,0.21589 -0.92431,0.42504 -1.43705,0.62744 l -0.50601,0 c -1.14695,0 -2.28715,-0.15517 -3.42059,-0.46552 -1.11997,-0.32384 -2.13872,-0.68142 -3.05628,-1.07273 -1.06598,-0.44528 -2.08474,-0.95804 -3.05627,-1.53826 0.0405,-1.09297 0.12144,-2.32762 0.24289,-3.70396 0.10794,-1.18741 0.25637,-2.58399 0.44528,-4.18972 0.18891,-1.6192 0.44528,-3.42058 0.76913,-5.40414 0.21589,-1.32234 0.48576,-2.79313 0.80961,-4.41236 0.32384,-1.63269 0.70165,-3.27889 1.13345,-4.93861 0.44528,-1.67317 0.93779,-3.29238 1.47753,-4.85765 0.55323,-1.57871 1.16044,-2.98203 1.82162,-4.20997 0.67467,-1.22787 1.40332,-2.21289 2.18595,-2.95507 0.7961,-0.7421 1.65293,-1.11317 2.5705,-1.11321 1.02549,4e-5 1.84859,0.17545 2.46931,0.52625 0.62068,0.35086 1.0997,0.82988 1.43705,1.43705 0.33732,0.59375 0.55997,1.29541 0.66793,2.10498 0.10793,0.80965 0.1619,1.67323 0.16192,2.59075 -2e-5,1.28191 -0.2429,2.60427 -0.72865,3.96708 -0.47228,1.36287 -1.09298,2.72571 -1.8621,4.08852 -0.76914,1.34937 -1.63272,2.67173 -2.59074,3.96708 -0.94456,1.2954 -1.8891,2.51656 -2.83363,3.66348 l 0.32384,0.22264 m 1.82162,1.47754 c -0.47228,2e-5 -0.94455,0.10122 -1.41681,0.3036 -0.47229,0.18893 -0.91082,0.49253 -1.31562,0.91081 -0.40481,0.40482 -0.76239,0.93107 -1.07273,1.57874 -0.31036,0.6342 -0.53974,1.40333 -0.68817,2.30738 -0.12144,0.72866 -0.22264,1.40333 -0.3036,2.02402 -0.081,0.60722 -0.14843,1.14696 -0.2024,1.61922 -0.054,0.53975 -0.10121,1.04575 -0.14168,1.51802 0.44528,0.13494 0.89056,0.24963 1.33585,0.34408 0.3913,0.081 0.80285,0.15518 1.23465,0.22264 0.43179,0.0675 0.84334,0.10121 1.23466,0.1012 0.45876,10e-6 0.87706,-0.13493 1.25489,-0.4048 0.37781,-0.26987 0.71514,-0.62744 1.01201,-1.07273 0.29684,-0.45877 0.55322,-0.97827 0.76913,-1.5585 0.21588,-0.58021 0.3913,-1.18067 0.52624,-1.80138 0.13492,-0.63418 0.23613,-1.25488 0.30361,-1.8621 0.0675,-0.62068 0.10118,-1.18741 0.1012,-1.70017 -2e-5,-0.33733 -0.0405,-0.65442 -0.12144,-0.95129 -0.0675,-0.31034 -0.20242,-0.58021 -0.40481,-0.80961 -0.18892,-0.22938 -0.45879,-0.41154 -0.80961,-0.54649 -0.33735,-0.14841 -0.76914,-0.22262 -1.29537,-0.22264 m 1.98354,-18.54003 c -1e-5,-0.0539 -0.0135,-0.16864 -0.0405,-0.34409 -0.0135,-0.17538 -0.0607,-0.35754 -0.14168,-0.54648 -0.0675,-0.18888 -0.16868,-0.35754 -0.3036,-0.50601 -0.13495,-0.14839 -0.31711,-0.2226 -0.54649,-0.22264 -0.26988,4e-5 -0.55324,0.19569 -0.85009,0.58697 -0.28337,0.37785 -0.56674,0.89735 -0.85009,1.55849 -0.28337,0.64772 -0.55999,1.40336 -0.82985,2.26691 -0.26987,0.85012 -0.533,1.74743 -0.78936,2.69194 -0.25639,0.93108 -0.49927,1.88237 -0.72865,2.85387 -0.21591,0.97156 -0.41831,1.89586 -0.60721,2.77291 -0.17542,0.86361 -0.3306,1.65972 -0.46552,2.38835 -0.13494,0.71517 -0.24289,1.29539 -0.32385,1.74066 0.36432,-0.70165 0.76912,-1.43029 1.21442,-2.18595 0.45877,-0.75561 0.91754,-1.53823 1.37633,-2.34786 0.45877,-0.82308 0.90405,-1.65967 1.33585,-2.50979 0.44528,-0.86355 0.84334,-1.74063 1.19418,-2.63122 0.36431,-0.90404 0.66116,-1.81485 0.89057,-2.73243 0.24287,-0.93102 0.39804,-1.87556 0.46552,-2.83363"
         style="fill:#4fa600;font-family:Pacifico;-inkscape-font-specification:Pacifico Bold"
         id="path6455"
         inkscape:connector-curvature="0" />
      <path
         d="m 184.0982,911.24096 c -0.48578,0.44529 -1.09299,0.92431 -1.82162,1.43705 -0.71517,0.49927 -1.49104,0.96479 -2.32763,1.39658 -0.8366,0.4183 -1.69344,0.76913 -2.5705,1.05249 -0.86359,0.28336 -1.6867,0.42504 -2.46931,0.42504 -0.70167,0 -1.29538,-0.0944 -1.78114,-0.28336 -0.47227,-0.2024 -0.85684,-0.47902 -1.15369,-0.82985 -0.29686,-0.35083 -0.51275,-0.77587 -0.64769,-1.27513 -0.12144,-0.51275 -0.18216,-1.07273 -0.18216,-1.67994 0,-0.85008 0.0944,-1.8351 0.28336,-2.95507 0.2024,-1.13344 0.44529,-2.30063 0.72865,-3.50156 0.28336,-1.2144 0.58022,-2.42206 0.89057,-3.62299 0.32384,-1.20091 0.6072,-2.30737 0.85009,-3.3194 0.0944,-0.35081 0.28336,-0.64767 0.56673,-0.89057 0.28335,-0.25635 0.60045,-0.45876 0.95129,-0.6072 0.36431,-0.16191 0.73538,-0.2766 1.11321,-0.34409 0.3913,-0.0809 0.74213,-0.12142 1.05249,-0.12144 0.56671,2e-5 0.95128,0.10797 1.15369,0.32385 0.20239,0.20242 0.30359,0.47903 0.3036,0.82984 -1e-5,0.29688 -0.0675,0.72867 -0.2024,1.29538 -0.13494,0.55325 -0.30361,1.18744 -0.506,1.90258 -0.20242,0.70167 -0.41831,1.46405 -0.64769,2.28714 -0.2294,0.80962 -0.44529,1.62598 -0.64769,2.44907 -0.20241,0.80961 -0.37108,1.60573 -0.506,2.38834 -0.13495,0.76914 -0.20241,1.46405 -0.20241,2.08474 0,0.60721 0.0675,1.09298 0.20241,1.4573 0.13492,0.35083 0.41154,0.52625 0.82985,0.52624 0.48575,10e-6 1.02549,-0.16866 1.61921,-0.506 0.5937,-0.33733 1.19416,-0.74214 1.80138,-1.21441 0.60719,-0.48576 1.20091,-0.98502 1.78114,-1.49778 0.5802,-0.51274 1.09296,-0.95128 1.53826,-1.31561 l 0,4.10876 m -9.04738,-20.80694 c 0,-0.31032 0.0675,-0.66115 0.2024,-1.05249 0.13493,-0.39128 0.35083,-0.75561 0.64769,-1.09297 0.31034,-0.3508 0.71515,-0.64091 1.21441,-0.87033 0.51275,-0.24285 1.14694,-0.36429 1.90258,-0.36432 0.47226,3e-5 0.91755,0.054 1.33586,0.16192 0.41828,0.10798 0.78261,0.27664 1.09297,0.50601 0.31034,0.21592 0.55322,0.50603 0.72865,0.87032 0.18889,0.36435 0.28335,0.79615 0.28336,1.29538 -1e-5,0.4588 -0.0742,0.90409 -0.22264,1.33585 -0.14845,0.43182 -0.38458,0.81638 -0.70841,1.15369 -0.32386,0.33736 -0.73541,0.61398 -1.23465,0.82985 -0.48578,0.20243 -1.07275,0.30363 -1.7609,0.30361 -1.18744,2e-5 -2.06451,-0.2766 -2.63123,-0.82985 -0.56673,-0.56671 -0.85009,-1.31559 -0.85009,-2.24667"
         style="fill:#4fa600;font-family:Pacifico;-inkscape-font-specification:Pacifico Bold"
         id="path6457"
         inkscape:connector-curvature="0" />
      <path
         d="m 182.6409,911.32192 c 0,-0.89056 0.054,-1.91607 0.16192,-3.07651 0.10795,-1.17393 0.24288,-2.36135 0.40481,-3.56228 0.16192,-1.2144 0.34408,-2.38158 0.54648,-3.50156 0.2024,-1.11994 0.39806,-2.07797 0.58697,-2.8741 0.14842,-0.62069 0.43179,-1.14019 0.85009,-1.5585 0.43178,-0.41828 1.012,-0.62743 1.74066,-0.62745 0.72864,2e-5 1.23464,0.22266 1.51801,0.66793 0.28336,0.4453 0.42504,1.03901 0.42505,1.78114 -1e-5,0.20242 -0.0203,0.47903 -0.0607,0.82985 -0.0405,0.33735 -0.0945,0.71517 -0.16193,1.13345 -0.054,0.40482 -0.1147,0.82986 -0.18216,1.27513 -0.0675,0.43181 -0.13494,0.83661 -0.2024,1.21441 -0.054,0.36434 -0.10121,0.68818 -0.14168,0.97153 -0.0405,0.26988 -0.0607,0.45205 -0.0607,0.54649 l 0.4048,0 c 0.081,-0.14842 0.20914,-0.38455 0.38457,-0.70841 0.1754,-0.33732 0.37781,-0.72189 0.6072,-1.15369 0.22938,-0.43178 0.47226,-0.88381 0.72865,-1.35609 0.26986,-0.48575 0.51949,-0.94453 0.74889,-1.37634 0.22938,-0.44527 0.43853,-0.83658 0.62745,-1.17393 0.18889,-0.33732 0.33057,-0.58695 0.42504,-0.74889 0.43178,-0.72863 0.92429,-1.22789 1.47753,-1.49777 0.55322,-0.26985 1.16718,-0.40479 1.84186,-0.40481 0.67466,2e-5 1.20765,0.28338 1.59898,0.85009 0.40479,0.56675 0.60719,1.34937 0.60721,2.34787 -2e-5,0.14844 -0.0337,0.39807 -0.1012,0.74888 -0.054,0.35085 -0.12821,0.76915 -0.22265,1.2549 -0.0945,0.48578 -0.20242,1.01877 -0.32384,1.59897 -0.10796,0.58023 -0.20917,1.17395 -0.3036,1.78114 -0.0945,0.60722 -0.17543,1.20768 -0.24289,1.80138 -0.054,0.59372 -0.081,1.14021 -0.081,1.63946 -1e-5,0.8366 0.10119,1.52477 0.30361,2.0645 0.21588,0.53974 0.54647,0.80961 0.99177,0.80961 0.20238,0 0.43177,-0.0607 0.68816,-0.18216 0.26986,-0.12144 0.55322,-0.27662 0.85009,-0.46553 0.31033,-0.2024 0.62068,-0.43179 0.93105,-0.68817 0.32383,-0.25637 0.64092,-0.51949 0.95129,-0.78937 0.71514,-0.63418 1.46402,-1.34933 2.24667,-2.14546 l 0.34408,4.53381 -1.01201,0.76913 c -0.55326,0.4183 -1.11998,0.8366 -1.70018,1.25489 -0.56674,0.4183 -1.16046,0.79612 -1.78114,1.13345 -0.62072,0.32385 -1.2684,0.59372 -1.94306,0.80961 -0.67469,0.2024 -1.38309,0.3036 -2.12522,0.3036 -0.74215,0 -1.3696,-0.53299 -1.88234,-1.59897 -0.49927,-1.07948 -0.7489,-2.65147 -0.74889,-4.71597 -1e-5,-0.8096 0.054,-1.67993 0.16192,-2.61099 0.10794,-0.94453 0.24287,-1.95654 0.40481,-3.03603 l -0.32384,0 -5.30294,10.52491 c -0.26988,0.55323 -0.57348,0.93105 -0.91081,1.13345 -0.33734,0.2024 -0.72865,0.3036 -1.17393,0.3036 -0.55324,0 -0.99852,-0.11469 -1.33585,-0.34408 -0.33734,-0.24288 -0.60047,-0.55998 -0.78937,-0.95129 -0.17542,-0.4048 -0.29686,-0.85683 -0.36433,-1.35609 -0.054,-0.51275 -0.081,-1.039 -0.081,-1.57874"
         style="fill:#4fa600;font-family:Pacifico;-inkscape-font-specification:Pacifico Bold"
         id="path6459"
         inkscape:connector-curvature="0" />
      <path
         d="m 222.59508,910.59327 c -0.31038,0.4318 -0.72868,0.9378 -1.2549,1.51802 -0.51277,0.58022 -1.09299,1.13345 -1.74066,1.6597 -0.6477,0.52624 -1.34262,0.97153 -2.08474,1.33585 -0.74216,0.36432 -1.4843,0.54648 -2.22642,0.54649 -0.89059,-10e-6 -1.63273,-0.28337 -2.22642,-0.85009 -0.59373,-0.58022 -1.10648,-1.41682 -1.53826,-2.50979 -0.32386,0.37782 -0.72191,0.76238 -1.19417,1.15369 -0.47228,0.39131 -0.99178,0.74889 -1.5585,1.07273 -0.55324,0.31035 -1.13346,0.56673 -1.74066,0.76913 -0.60721,0.2024 -1.21442,0.3036 -1.82162,0.3036 -0.64769,0 -1.28188,-0.12818 -1.90257,-0.38456 -0.60721,-0.26987 -1.14695,-0.64769 -1.61922,-1.13345 -0.47228,-0.49926 -0.85009,-1.09972 -1.13345,-1.80138 -0.28337,-0.71515 -0.42505,-1.51801 -0.42505,-2.40858 0,-1.01201 0.14168,-2.05101 0.42505,-3.117 0.28336,-1.06597 0.67467,-2.10497 1.17393,-3.11699 0.49925,-1.02549 1.08622,-1.99027 1.7609,-2.89435 0.68816,-0.90405 1.43705,-1.69341 2.24666,-2.3681 0.8096,-0.67466 1.65969,-1.20765 2.55027,-1.59898 0.90405,-0.40479 1.8216,-0.60719 2.75267,-0.60721 0.31033,2e-5 0.55322,0.0607 0.72864,0.18216 0.17541,0.12147 0.31709,0.26315 0.42505,0.42505 0.12143,0.14845 0.23612,0.29687 0.34408,0.44528 0.10793,0.14845 0.24287,0.2564 0.40481,0.32385 0.1619,0.0675 0.32382,0.11471 0.48576,0.14168 0.1754,0.0135 0.35082,0.0203 0.52625,0.0202 0.14841,2e-5 0.29684,2e-5 0.44528,0 0.16191,-0.0135 0.31708,-0.0202 0.46553,-0.0202 0.20238,2e-5 0.39129,0.0203 0.56672,0.0607 0.1754,0.0405 0.33057,0.1282 0.46553,0.26312 0.13491,0.13495 0.23611,0.32386 0.3036,0.56673 0.0809,0.2429 0.12142,0.57349 0.12144,0.99177 -2e-5,0.6477 -0.0675,1.3696 -0.2024,2.1657 -0.13495,0.78264 -0.28338,1.59224 -0.44529,2.42883 -0.16193,0.82311 -0.31036,1.65296 -0.44528,2.48954 -0.13495,0.82311 -0.20242,1.60573 -0.2024,2.34787 -2e-5,0.6342 0.054,1.13345 0.16192,1.49777 0.12142,0.35084 0.37105,0.52625 0.74889,0.52625 0.28334,0 0.5802,-0.0675 0.89057,-0.20241 0.31033,-0.14842 0.62068,-0.33733 0.93105,-0.56672 0.32382,-0.22938 0.64092,-0.48576 0.95129,-0.76913 0.32382,-0.29685 0.62742,-0.60045 0.9108,-0.91081 0.66116,-0.72864 1.32909,-1.55174 2.00379,-2.4693 l 0.97153,4.49332 m -17.28514,-1.59897 c -1e-5,0.33734 0.0202,0.66793 0.0607,0.99177 0.054,0.31035 0.14167,0.59371 0.26312,0.85009 0.12143,0.24288 0.28336,0.44528 0.48576,0.6072 0.2024,0.14843 0.45877,0.22265 0.76913,0.22264 0.49925,10e-6 0.95128,-0.21589 1.3561,-0.64768 0.40479,-0.43179 0.75562,-0.95129 1.05249,-1.5585 0.29684,-0.6072 0.53298,-1.23464 0.7084,-1.88234 0.1889,-0.64768 0.31034,-1.18742 0.36433,-1.61922 l 1.23465,-5.95062 c -0.55324,2e-5 -1.09298,0.1417 -1.61922,0.42505 -0.52625,0.26988 -1.02551,0.64095 -1.49777,1.11321 -0.45879,0.47228 -0.88383,1.01202 -1.27513,1.61922 -0.39132,0.60721 -0.72866,1.24815 -1.01201,1.92282 -0.28337,0.66119 -0.50602,1.32911 -0.66793,2.00378 -0.14844,0.67468 -0.22265,1.30887 -0.22264,1.90258"
         style="fill:#4fa600;font-family:Pacifico;-inkscape-font-specification:Pacifico Bold"
         id="path6461"
         inkscape:connector-curvature="0" />
    </g>
    <g
       style="font-size:106.91062927px;font-style:normal;font-variant:normal;font-weight:bold;font-stretch:normal;text-align:center;line-height:98.00000191%;letter-spacing:0px;word-spacing:0px;text-anchor:middle;fill:#4fa600;fill-opacity:1;stroke:none;font-family:ZnikomitNo24;-inkscape-font-specification:Sans Bold"
       id="text5001-4-1-0-8-1-8-2">
      <path
         d="m 79.396073,713.12472 c -0.13923,1.04405 -0.469845,1.89669 -0.991847,2.55792 -0.522046,0.66123 -1.148475,1.18326 -1.879288,1.56607 -0.730854,0.38282 -1.51389,0.66123 -2.349111,0.83524 -0.835256,0.13921 -1.635693,0.20881 -2.401313,0.20881 -0.904857,0 -1.792298,-0.087 -2.662325,-0.26101 -0.835251,-0.20881 -1.583486,-0.50462 -2.244706,-0.88744 -0.661241,-0.41762 -1.183265,-0.90484 -1.566073,-1.46167 -0.382827,-0.59163 -0.574236,-1.25286 -0.574227,-1.9837 -9e-6,-1.42686 0.0696,-2.73192 0.208809,-3.91518 0.139198,-1.21805 0.348008,-2.4361 0.62643,-3.65417 0.974436,-4.07178 1.827075,-7.84775 2.55792,-11.32793 0.730822,-3.51494 1.357251,-6.8385 1.879289,-9.97067 0.52201,-3.13211 0.974431,-6.15985 1.357263,-9.08323 0.382803,-2.95809 0.713418,-5.91623 0.991847,-8.87442 0.313199,-2.99288 0.591611,-6.07283 0.835239,-9.23983 0.243595,-3.16689 0.504607,-6.56004 0.783037,-10.17948 -1.7e-5,-0.31315 -1.7e-5,-0.71336 0,-1.20066 -1.7e-5,-0.48715 -0.05222,-0.93957 -0.156607,-1.35726 -0.104422,-0.45235 -0.295831,-0.83517 -0.574227,-1.14846 -0.243628,-0.31314 -0.626446,-0.46974 -1.148454,-0.46982 -0.835254,8e-5 -1.861902,0.29589 -3.079945,0.88744 -1.183267,0.5569 -2.436125,1.32254 -3.758577,2.29691 -1.32247,0.97452 -2.64493,2.12297 -3.967386,3.44536 -1.322466,1.28773 -2.540522,2.6798 -3.654172,4.1762 -0.208811,0.52209 -0.539426,0.90491 -0.991847,1.14845 -0.452421,0.20888 -0.957044,0.31328 -1.513871,0.31322 -0.174007,6e-5 -0.348015,-0.13914 -0.522025,-0.41762 -0.208808,-0.31315 -0.382816,-0.67857 -0.522024,-1.09625 -0.174006,-0.41756 -0.313212,-0.85258 -0.41762,-1.30506 -0.104402,-0.48716 -0.156604,-0.92218 -0.156607,-1.30506 3e-6,-0.20875 0.06961,-0.38276 0.208809,-0.52203 1.252861,-4.10652 2.662326,-7.53448 4.228399,-10.28388 1.600873,-2.78405 3.271349,-4.99396 5.011436,-6.62972 1.774875,-1.67039 3.567158,-2.85364 5.376853,-3.54976 1.844473,-0.69595 3.601954,-1.04396 5.272448,-1.04405 2.157682,9e-5 3.949965,0.41771 5.376853,1.25286 1.426843,0.80052 2.557895,1.94898 3.39316,3.44536 0.835212,1.46175 1.409439,3.23663 1.722681,5.32465 0.347988,2.08818 0.521996,4.40248 0.522024,6.94293 -2.8e-5,1.94896 -0.156635,4.22846 -0.469822,6.83852 -0.313242,2.61018 -0.71346,5.35951 -1.200656,8.24799 -0.452448,2.85378 -0.957071,5.72492 -1.513872,8.6134 -0.55685,2.88858 -1.096275,5.58571 -1.618276,8.09138 1.113628,-4.62857 2.418688,-9.06577 3.915184,-13.31162 1.531244,-4.28055 3.18432,-8.26533 4.959234,-11.95437 1.809651,-3.7237 3.723739,-7.08206 5.74227,-10.07507 2.018455,-3.02766 4.08915,-5.62038 6.21209,-7.77817 2.15766,-2.15761 4.33276,-3.82809 6.52531,-5.01143 2.19245,-1.18317 4.36755,-1.7748 6.52531,-1.77489 1.60081,9e-5 3.07988,0.34811 4.4372,1.04405 1.35721,0.69612 2.52306,1.77497 3.49757,3.23656 0.97438,1.46175 1.72261,3.30623 2.2447,5.53346 0.55676,2.22738 0.83518,4.8723 0.83524,7.93477 -6e-5,0.27848 -0.0349,0.7135 -0.1044,1.30506 -0.0349,0.5917 -0.10447,1.27033 -0.20881,2.0359 -0.0697,0.7657 -0.17408,1.60094 -0.31322,2.50571 -0.10447,0.87011 -0.20887,1.74015 -0.31321,2.61013 -0.27848,2.08816 -0.57429,4.35026 -0.88744,6.78632 l 1.09625,-0.0522 c 1.35719,-5.15058 3.02767,-9.77919 5.01144,-13.88585 1.98361,-4.10652 4.21092,-7.58668 6.68191,-10.44049 2.47083,-2.88845 5.13316,-5.09835 7.98698,-6.62971 2.85364,-1.53118 5.81178,-2.29682 8.87441,-2.29691 2.1228,9e-5 4.00209,0.62652 5.63787,1.87929 1.67037,1.25294 3.06244,2.95822 4.17619,5.11584 1.11355,2.12298 1.96619,4.6287 2.55793,7.51715 0.59151,2.85381 0.88733,5.88155 0.88744,9.08323 -1.1e-4,2.993 -0.20892,6.07295 -0.62643,9.23983 -0.38293,3.13221 -0.87015,6.24695 -1.46167,9.34424 -0.59174,3.06259 -1.23557,6.07293 -1.93149,9.03103 -0.66134,2.95817 -1.28777,5.7597 -1.87929,8.40459 -0.59173,2.64496 -1.09635,5.09847 -1.51387,7.36055 -0.38292,2.22733 -0.57433,4.15882 -0.57423,5.79447 -1e-4,2.05332 0.36532,3.54978 1.09625,4.48941 0.76554,0.90486 1.86179,1.35728 3.28876,1.35727 0.80033,10e-6 1.63557,-0.2088 2.50572,-0.62643 0.90473,-0.45241 1.79217,-1.02664 2.66232,-1.72268 0.90473,-0.73082 1.79217,-1.54866 2.66233,-2.45352 0.86992,-0.93962 1.70516,-1.89667 2.50571,-2.87113 1.84437,-2.22729 3.67146,-4.7852 5.48126,-7.67376 -1.2e-4,0.0348 0.15649,0.40024 0.46982,1.09625 0.24349,0.59165 0.64371,1.6009 1.20066,3.02774 0.5567,1.42689 1.33974,3.48018 2.34911,6.15989 -1.74021,3.06256 -3.53249,5.65528 -5.37685,7.77817 -1.84461,2.1229 -3.72389,3.86298 -5.63787,5.22024 -1.9142,1.32247 -3.86309,2.27951 -5.84667,2.87114 -1.949,0.59162 -3.89789,0.88744 -5.84668,0.88744 -1.87939,0 -3.72387,-0.33062 -5.53346,-0.99185 -1.77498,-0.66123 -3.35845,-1.63567 -4.75042,-2.92334 -1.39216,-1.32245 -2.50581,-2.94073 -3.34096,-4.85482 -0.83533,-1.94889 -1.25295,-4.17619 -1.25286,-6.68192 -9e-5,-0.2784 -9e-5,-0.57421 0,-0.88744 0.0347,-0.3132 0.0695,-0.62641 0.10441,-0.93964 0.13912,-2.33169 0.43493,-4.80261 0.88744,-7.41275 0.45233,-2.6449 0.95695,-5.35943 1.51387,-8.14359 0.59154,-2.78409 1.20057,-5.62042 1.82709,-8.509 0.62633,-2.88849 1.20056,-5.75962 1.72268,-8.6134 0.52193,-2.88848 0.95695,-5.72482 1.30506,-8.509 0.34792,-2.81887 0.52193,-5.516 0.52202,-8.09138 -9e-5,-1.56601 -0.0523,-2.97547 -0.1566,-4.2284 -0.1045,-1.28759 -0.31331,-2.36644 -0.62643,-3.23655 -0.31331,-0.90477 -0.76573,-1.6008 -1.35727,-2.0881 -0.59172,-0.48715 -1.37475,-0.73076 -2.34911,-0.73084 -1.84457,8e-5 -3.58465,0.64391 -5.22024,1.93149 -1.63576,1.28774 -3.18444,3.06262 -4.64602,5.32465 -1.46175,2.26218 -2.83641,4.9419 -4.124,8.03918 -1.25293,3.09741 -2.45359,6.45576 -3.60197,10.07508 -1.11372,3.58461 -2.15777,7.36059 -3.13214,11.32793 -0.97452,3.93262 -1.87936,7.9 -2.71453,11.90216 -0.83531,4.00221 -1.61834,7.95219 -2.34911,11.84996 -0.7309,3.89779 -1.40953,7.58676 -2.0359,11.06692 -0.27847,0.97445 -0.71349,1.80969 -1.30506,2.50572 -0.55689,0.66123 -1.21812,1.20065 -1.98369,1.61827 -0.7309,0.41762 -1.51393,0.73084 -2.34911,0.93965 -0.8353,0.174 -1.67054,0.26101 -2.50572,0.26101 -0.73089,0 -1.46172,-0.13921 -2.1925,-0.41762 -0.69609,-0.27841 -1.32252,-0.71343 -1.87929,-1.30506 -0.52208,-0.62643 -0.9571,-1.40947 -1.30506,-2.34911 -0.31327,-0.93964 -0.46987,-2.0881 -0.46982,-3.44537 -5e-5,-0.90483 0.20876,-2.4535 0.62642,-4.64601 0.41757,-2.22729 0.9396,-4.87222 1.56608,-7.93478 0.66118,-3.09732 1.35721,-6.47308 2.0881,-10.12727 0.76558,-3.68894 1.46161,-7.43012 2.08809,-11.22353 0.66118,-3.82814 1.2006,-7.60411 1.61828,-11.32793 0.41756,-3.72372 0.62637,-7.15168 0.62643,-10.28389 -6e-5,-2.15763 -0.0523,-4.08912 -0.15661,-5.79447 -0.10446,-1.70521 -0.34807,-3.14948 -0.73083,-4.3328 -0.38288,-1.18319 -0.9397,-2.08803 -1.67048,-2.71453 -0.69609,-0.62636 -1.63573,-0.93957 -2.81893,-0.93965 -0.9745,8e-5 -2.08815,0.66131 -3.34096,1.9837 -1.25291,1.32253 -2.61017,3.14962 -4.07179,5.48125 -1.42691,2.33178 -2.905981,5.08111 -4.43721,8.24799 -1.531312,3.13221 -3.062582,6.52536 -4.593816,10.17948 -1.496506,3.65422 -2.958173,7.4824 -4.385007,11.48454 -1.392096,3.96742 -2.679755,7.95221 -3.862981,11.95436 -1.183283,3.96741 -2.227331,7.86519 -3.132148,11.69335 -0.904866,3.79339 -1.583497,7.36056 -2.035895,10.70151"
         style="fill:#4fa600;font-family:Pacifico;-inkscape-font-specification:Pacifico Bold"
         id="path6423"
         inkscape:connector-curvature="0" />
      <path
         d="m 231.30522,705.45096 c -0.8005,1.11366 -1.87935,2.41872 -3.23655,3.91518 -1.32252,1.49648 -2.81899,2.92334 -4.48941,4.2806 -1.67053,1.35727 -3.46282,2.50572 -5.37686,3.44536 -1.91413,0.93965 -3.82822,1.40947 -5.74227,1.40947 -2.29695,0 -4.21103,-0.73083 -5.74227,-2.1925 -1.5313,-1.49647 -2.85377,-3.65417 -3.96738,-6.47311 -0.83527,0.97446 -1.86192,1.9663 -3.07995,2.97554 -1.21808,1.00925 -2.55795,1.9315 -4.01959,2.76673 -1.42689,0.80044 -2.92336,1.46167 -4.48941,1.9837 -1.56609,0.52202 -3.13216,0.78303 -4.69822,0.78303 -1.67049,0 -3.30617,-0.33061 -4.90703,-0.99184 -1.56608,-0.69603 -2.95815,-1.67048 -4.1762,-2.92334 -1.21806,-1.28766 -2.19251,-2.83633 -2.92333,-4.64602 -0.73084,-1.84448 -1.09626,-3.91517 -1.09626,-6.21209 0,-2.61011 0.36542,-5.28983 1.09626,-8.03918 0.73082,-2.7493 1.74007,-5.42903 3.02774,-8.03918 1.28765,-2.64489 2.80152,-5.1332 4.54161,-7.46495 1.77487,-2.33167 3.70636,-4.36756 5.79447,-6.10769 2.08808,-1.74003 4.28058,-3.1147 6.57751,-4.12399 2.33169,-1.044 4.6982,-1.56602 7.09954,-1.56607 0.8004,5e-5 1.42683,0.15665 1.87929,0.46982 0.45238,0.31326 0.8178,0.67868 1.09625,1.09625 0.31318,0.38287 0.60899,0.76568 0.88744,1.14845 0.27838,0.38287 0.62639,0.66128 1.04405,0.83524 0.41758,0.17406 0.8352,0.29586 1.25286,0.36542 0.45238,0.0349 0.9048,0.0522 1.35726,0.0522 0.38278,5e-5 0.7656,5e-5 1.14846,0 0.41757,-0.0348 0.81779,-0.0521 1.20065,-0.0522 0.52198,5e-5 1.00921,0.0522 1.46167,0.15661 0.45238,0.10445 0.8526,0.33066 1.20066,0.67863 0.34797,0.34806 0.60898,0.83528 0.78303,1.46167 0.20877,0.62647 0.31317,1.47911 0.31322,2.55792 -5e-5,1.67052 -0.17405,3.5324 -0.52203,5.58566 -0.34806,2.01853 -0.73087,4.10663 -1.14845,6.2643 -0.41766,2.12292 -0.80048,4.26322 -1.14845,6.4209 -0.34806,2.12292 -0.52207,4.14141 -0.52203,6.05548 -4e-5,1.63569 0.13917,2.92335 0.41762,3.86298 0.31317,0.90486 0.957,1.35728 1.93149,1.35727 0.73079,1e-5 1.49643,-0.174 2.29691,-0.52203 0.80039,-0.3828 1.60083,-0.87002 2.40131,-1.46167 0.83519,-0.59161 1.65303,-1.25284 2.45352,-1.98369 0.83519,-0.76562 1.61822,-1.54865 2.34911,-2.34911 1.70522,-1.87927 3.4279,-4.00217 5.16804,-6.3687 l 2.50572,11.58895 m -44.5809,-4.124 c -1e-5,0.87006 0.0522,1.7227 0.15661,2.55792 0.13919,0.80045 0.3654,1.53129 0.67863,2.19251 0.3132,0.62644 0.73082,1.14846 1.25286,1.56607 0.52201,0.38283 1.18324,0.57424 1.98369,0.57423 1.28764,1e-5 2.4535,-0.55682 3.49757,-1.67048 1.04402,-1.11364 1.94886,-2.4535 2.71453,-4.01959 0.7656,-1.56606 1.37463,-3.18433 1.82708,-4.85483 0.4872,-1.67046 0.80041,-3.06252 0.93965,-4.1762 l 3.18435,-15.34752 c -1.4269,4e-5 -2.81897,0.36546 -4.1762,1.09625 -1.35729,0.69608 -2.64495,1.65312 -3.86298,2.87114 -1.18328,1.21809 -2.27953,2.61016 -3.28876,4.1762 -1.00926,1.5661 -1.8793,3.21918 -2.61012,4.95923 -0.73085,1.7053 -1.30508,3.42798 -1.72268,5.16804 -0.38284,1.7401 -0.57424,3.37578 -0.57423,4.90703"
         style="fill:#4fa600;font-family:Pacifico;-inkscape-font-specification:Pacifico Bold"
         id="path6425"
         inkscape:connector-curvature="0" />
      <path
         d="m 246.70494,712.7593 c -1.87931,1.67048 -3.8456,3.02775 -5.89887,4.07179 -2.01852,1.00925 -3.98481,1.51387 -5.89888,1.51387 -1.67049,0 -3.30617,-0.33061 -4.90703,-0.99184 -1.56609,-0.69603 -2.95815,-1.67048 -4.1762,-2.92334 -1.21806,-1.28766 -2.19251,-2.83633 -2.92334,-4.64602 -0.73083,-1.84448 -1.09625,-3.91517 -1.09625,-6.21209 0,-2.61011 0.36542,-5.28983 1.09625,-8.03918 0.73083,-2.7493 1.74008,-5.42903 3.02775,-8.03918 1.28765,-2.64489 2.80152,-5.1332 4.54161,-7.46495 1.77487,-2.33167 3.70636,-4.36756 5.79447,-6.10769 2.08808,-1.74003 4.28058,-3.1147 6.57751,-4.12399 2.33168,-1.044 4.69819,-1.56602 7.09954,-1.56607 0.8004,5e-5 1.42683,0.15665 1.87928,0.46982 0.45239,0.31326 0.81781,0.67868 1.09626,1.09625 0.31318,0.38287 0.60899,0.76568 0.88744,1.14845 0.27837,0.38287 0.62639,0.66128 1.04405,0.83524 0.41758,0.17406 0.8352,0.29586 1.25286,0.36542 0.45238,0.0349 0.9048,0.0522 1.35726,0.0522 0.38278,5e-5 0.7656,5e-5 1.14845,0 0.41758,-0.0348 0.8178,-0.0521 1.20066,-0.0522 0.52198,5e-5 1.0092,0.0522 1.46167,0.15661 0.45238,0.10445 0.8526,0.33066 1.20066,0.67863 0.34797,0.34806 0.60898,0.83528 0.78303,1.46167 0.20877,0.62647 0.31317,1.47911 0.31322,2.55792 -5e-5,0.90488 -0.0697,2.12294 -0.20881,3.65417 -0.13925,1.53131 -0.33066,3.23659 -0.57423,5.11584 -0.24366,1.87932 -0.52207,3.88041 -0.83524,6.00328 -0.27846,2.08813 -0.57427,4.14142 -0.88744,6.15989 -0.73088,4.80264 -1.56612,9.93588 -2.50572,15.39973 1.04401,-0.59162 2.17506,-1.32246 3.39316,-2.19251 1.21801,-0.87003 2.57528,-2.03588 4.07179,-3.49756 1.49642,-1.46166 3.1669,-3.28874 5.01144,-5.48126 1.84443,-2.22728 3.91513,-4.99401 6.21209,-8.30019 l 2.50572,11.58895 c -0.62649,1.07886 -1.44433,2.19251 -2.45352,3.34095 -0.9745,1.11366 -2.07075,2.24472 -3.28875,3.39316 -1.18331,1.11366 -2.43617,2.20991 -3.75858,3.28876 -1.28771,1.04405 -2.55797,2.03589 -3.81078,2.97554 -2.95818,2.2273 -6.14253,4.385 -9.55305,6.4731 -0.66127,3.72377 -1.4443,7.34313 -2.34911,10.85811 -0.90488,3.54975 -1.98373,6.8559 -3.23655,9.91847 -1.21809,3.09732 -2.62755,5.93365 -4.2284,8.509 -1.5661,2.57528 -3.35838,4.78518 -5.37685,6.62971 -1.98372,1.84444 -4.21102,3.27131 -6.68192,4.2806 -2.47093,1.044 -5.20285,1.56603 -8.19578,1.56608 -1.18327,-5e-5 -2.47092,-0.12186 -3.86298,-0.36542 -1.35727,-0.24366 -2.62753,-0.73088 -3.81078,-1.46167 -1.14846,-0.73088 -2.1055,-1.77493 -2.87114,-3.13215 -0.76563,-1.3573 -1.14845,-3.16699 -1.14845,-5.42905 0,-1.56611 0.40022,-3.34099 1.20065,-5.32465 0.80044,-1.94892 1.89669,-4.01962 3.28876,-6.21209 1.39206,-2.15773 3.04514,-4.41983 4.95923,-6.78632 1.91408,-2.33173 3.98478,-4.66344 6.21209,-6.99513 2.2621,-2.33172 4.6112,-4.62863 7.04734,-6.89073 2.47089,-2.26211 4.9592,-4.41981 7.46495,-6.4731 l 1.40946,-4.85483 M 235.1682,701.32696 c -2e-5,0.87006 0.0522,1.7227 0.15661,2.55792 0.13919,0.80045 0.3654,1.53129 0.67863,2.19251 0.3132,0.62644 0.73082,1.14846 1.25286,1.56607 0.522,0.38283 1.18323,0.57424 1.98369,0.57423 1.28764,1e-5 2.45349,-0.55682 3.49757,-1.67048 1.04402,-1.11364 1.94886,-2.4535 2.71452,-4.01959 0.76561,-1.56606 1.37464,-3.18433 1.82709,-4.85483 0.48719,-1.67046 0.80041,-3.06252 0.93964,-4.1762 l 3.18435,-15.34752 c -1.42689,4e-5 -2.81896,0.36546 -4.17619,1.09625 -1.35729,0.69608 -2.64495,1.65312 -3.86298,2.87114 -1.18328,1.21809 -2.27953,2.61016 -3.28876,4.1762 -1.00927,1.5661 -1.87931,3.21918 -2.61012,4.95923 -0.73085,1.7053 -1.30508,3.42798 -1.72268,5.16804 -0.38284,1.7401 -0.57425,3.37578 -0.57423,4.90703 m -7.72596,55.33461 c 1.46166,-4e-5 2.83632,-0.43506 4.12399,-1.30507 1.32245,-0.83527 2.5231,-1.94892 3.60197,-3.34095 1.11364,-1.3921 2.12288,-2.97557 3.02774,-4.75043 0.90483,-1.77491 1.70526,-3.60199 2.40132,-5.48125 0.69601,-1.84451 1.28763,-3.6542 1.77488,-5.42906 0.4872,-1.7749 0.87002,-3.35837 1.14845,-4.75042 -1.35728,0.90483 -2.74935,1.98368 -4.17619,3.23655 -1.39209,1.25284 -2.76675,2.5927 -4.124,4.01959 -1.32247,1.46165 -2.59273,2.95811 -3.81078,4.48941 -1.18326,1.53124 -2.22731,2.99291 -3.13214,4.38501 -0.90485,1.42683 -1.61829,2.74929 -2.1403,3.96738 -0.52204,1.21803 -0.78305,2.22727 -0.78304,3.02774 -1e-5,1.28763 0.69602,1.93146 2.0881,1.9315"
         style="fill:#4fa600;font-family:Pacifico;-inkscape-font-specification:Pacifico Bold"
         id="path6427"
         inkscape:connector-curvature="0" />
      <path
         d="m 305.3283,707.12144 c -1.2529,1.14846 -2.81897,2.38392 -4.69822,3.70637 -1.84452,1.28767 -3.84561,2.48832 -6.00328,3.60197 -2.15773,1.07885 -4.36763,1.98369 -6.62971,2.71453 -2.22733,0.73083 -4.35023,1.09625 -6.3687,1.09625 -1.8097,0 -3.34097,-0.24361 -4.59382,-0.73084 -1.21807,-0.52202 -2.20991,-1.23545 -2.97554,-2.1403 -0.76564,-0.90484 -1.32247,-2.00109 -1.67048,-3.28875 -0.31322,-1.32246 -0.46983,-2.76672 -0.46982,-4.33281 -10e-6,-2.19249 0.24361,-4.733 0.73083,-7.62155 0.52202,-2.92332 1.14845,-5.93366 1.87929,-9.03103 0.73083,-3.13212 1.49646,-6.24686 2.29691,-9.34424 0.83523,-3.0973 1.56606,-5.95104 2.1925,-8.5612 0.2436,-0.9048 0.73082,-1.67043 1.46167,-2.29691 0.73082,-0.66118 1.54866,-1.18321 2.45352,-1.56607 0.93962,-0.41757 1.89667,-0.71339 2.87113,-0.88744 1.00923,-0.20876 1.91407,-0.31317 2.71453,-0.31322 1.46165,5e-5 2.45349,0.27846 2.97554,0.83524 0.522,0.52207 0.78301,1.23551 0.78304,2.1403 -3e-5,0.76568 -0.17404,1.87933 -0.52203,3.34096 -0.34804,1.42691 -0.78306,3.06258 -1.30506,4.90703 -0.52205,1.80972 -1.07887,3.77601 -1.67048,5.89888 -0.59165,2.08813 -1.14847,4.19362 -1.67048,6.31649 -0.52204,2.08813 -0.95706,4.14142 -1.30506,6.15989 -0.34803,1.98372 -0.52204,3.776 -0.52202,5.37686 -2e-5,1.56608 0.17399,2.81894 0.52202,3.75857 0.348,0.90486 1.06143,1.35728 2.1403,1.35727 1.25284,1e-5 2.6449,-0.43501 4.1762,-1.30506 1.53124,-0.87003 3.07992,-1.91408 4.64602,-3.13215 1.56604,-1.25285 3.09731,-2.5405 4.59381,-3.86298 1.49644,-1.32245 2.8189,-2.4535 3.96739,-3.39316 l 0,10.5971 m -23.3345,-53.66413 c -1e-5,-0.80037 0.174,-1.70521 0.52203,-2.71453 0.348,-1.00918 0.90482,-1.94882 1.67048,-2.81893 0.80042,-0.90477 1.84446,-1.65301 3.13214,-2.24471 1.32244,-0.62635 2.95812,-0.93957 4.90703,-0.93964 1.21803,7e-5 2.36649,0.13928 3.44537,0.41762 1.07882,0.27849 2.01846,0.71351 2.81893,1.30506 0.8004,0.5569 1.42683,1.30513 1.87929,2.24471 0.48719,0.93971 0.7308,2.05336 0.73083,3.34095 -3e-5,1.18333 -0.19144,2.33178 -0.57423,3.44537 -0.38285,1.11371 -0.99187,2.10556 -1.82708,2.97554 -0.83527,0.8701 -1.89672,1.58353 -3.18435,2.1403 -1.25289,0.52208 -2.76676,0.78309 -4.54161,0.78303 -3.06257,6e-5 -5.32467,-0.71337 -6.78632,-2.1403 -1.46169,-1.4616 -2.19252,-3.39309 -2.19251,-5.79447"
         style="fill:#4fa600;font-family:Pacifico;-inkscape-font-specification:Pacifico Bold"
         id="path6429"
         inkscape:connector-curvature="0" />
      <path
         d="m 317.70028,718.24056 c -3.20177,0 -6.0207,-0.59163 -8.4568,-1.77489 -2.40132,-1.18325 -4.41981,-2.76672 -6.05548,-4.75042 -1.63569,-1.98368 -2.87114,-4.28059 -3.70638,-6.89072 -0.83524,-2.61011 -1.25286,-5.32463 -1.25286,-8.14359 0,-2.01847 0.20881,-4.12396 0.62643,-6.31649 0.41762,-2.19248 1.02665,-4.33277 1.82709,-6.42091 0.83523,-2.12286 1.84448,-4.14135 3.02774,-6.05548 1.21805,-1.91405 2.61011,-3.58452 4.1762,-5.01144 1.60086,-1.46162 3.37574,-2.61007 5.32465,-3.44536 1.94887,-0.86999 4.08917,-1.30501 6.4209,-1.30506 1.98367,5e-5 3.81075,0.31327 5.48126,0.93965 1.70525,0.59167 3.14951,1.42691 4.3328,2.50571 1.21802,1.0789 2.15767,2.36656 2.81894,3.86298 0.69599,1.46171 1.04401,3.04519 1.04404,4.75043 -3e-5,1.18329 -0.15664,2.34914 -0.46982,3.49756 -0.31325,1.14849 -0.78307,2.19254 -1.40946,3.13215 -0.59167,0.90487 -1.3225,1.63571 -2.19251,2.1925 -0.87007,0.55686 -1.84452,0.83527 -2.92333,0.83524 -1.63571,3e-5 -2.71456,-0.43499 -3.23656,-1.30506 -0.48725,-0.87001 -0.73086,-2.07066 -0.73083,-3.60197 -3e-5,-0.62639 0.0174,-1.28762 0.0522,-1.98369 0.0696,-0.696 0.10438,-1.32243 0.10441,-1.87929 -3e-5,-0.8352 -0.087,-1.53123 -0.26102,-2.0881 -0.17403,-0.55678 -0.55685,-0.8352 -1.14845,-0.83524 -1.42689,4e-5 -2.64495,0.34806 -3.65417,1.04405 -1.00927,0.66127 -1.87931,1.54871 -2.61012,2.66233 -0.69606,1.07888 -1.25288,2.31434 -1.67048,3.70637 -0.41764,1.3573 -0.74826,2.71456 -0.99185,4.07179 -0.24363,1.35729 -0.40024,2.66235 -0.46982,3.91519 -0.0696,1.21808 -0.10442,2.24472 -0.10441,3.07994 -10e-6,1.25288 0.10439,2.55794 0.31322,3.91519 0.24359,1.35728 0.67861,2.61013 1.30506,3.75857 0.62641,1.11367 1.47905,2.05331 2.55792,2.81894 1.07883,0.73084 2.47089,1.09626 4.1762,1.09625 1.67045,1e-5 3.51493,-0.50462 5.53346,-1.51387 2.01846,-1.04404 4.03695,-2.3491 6.05548,-3.91519 2.05326,-1.56606 4.00215,-3.28873 5.84668,-5.16804 1.84444,-1.87927 3.42791,-3.65415 4.75042,-5.32465 l 3.60197,6.05548 c -2.61017,3.72379 -5.4291,7.04735 -8.4568,9.97067 -1.2877,1.25287 -2.69716,2.47093 -4.2284,3.65417 -1.4965,1.18326 -3.07998,2.24471 -4.75042,3.18435 -1.63571,0.90485 -3.35839,1.65308 -5.16804,2.24471 -1.77491,0.55683 -3.5846,0.83524 -5.42906,0.83524"
         style="fill:#4fa600;font-family:Pacifico;-inkscape-font-specification:Pacifico Bold"
         id="path6431"
         inkscape:connector-curvature="0" />
    </g>
    <g
       id="g3056"
       transform="translate(332.85714,-108.12627)">
      <g
         id="text5001-4-1-0-8-19-4"
         style="font-size:106.91062927px;font-style:normal;font-variant:normal;font-weight:bold;font-stretch:normal;text-align:center;line-height:98.00000191%;letter-spacing:0px;word-spacing:0px;text-anchor:middle;fill:#4fa600;fill-opacity:1;stroke:none;font-family:ZnikomitNo24;-inkscape-font-specification:Sans Bold">
        <path
           id="path6434"
           style="fill:#4fa600;font-family:Pacifico;-inkscape-font-specification:Pacifico Bold"
           d="m 34.290103,753.58371 c -1.1e-5,-2.92326 0.591616,-5.46378 1.774883,-7.62156 1.218044,-2.19242 2.905922,-4.05431 5.063638,-5.58566 2.192484,-1.53119 4.802604,-2.78405 7.830369,-3.75858 3.062516,-1.00916 6.42087,-1.79219 10.075074,-2.34911 3.654133,-0.55673 7.569313,-0.93955 11.745552,-1.14845 4.176145,-0.20872 8.491544,-0.31313 12.946209,-0.31322 6.055419,9e-5 12.389311,0.24371 19.001692,0.73084 6.64703,0.48731 13.57255,1.37475 20.77658,2.66232 1.67038,0.34811 2.83623,0.97453 3.49756,1.87929 0.69593,0.90493 1.04395,1.91417 1.04405,3.02774 -1e-4,0.69612 -0.15671,1.37475 -0.46982,2.0359 -0.31332,0.66131 -0.73094,1.27034 -1.25286,1.82709 -0.52212,0.5569 -1.13115,1.00932 -1.82708,1.35726 -0.69614,0.31329 -1.42697,0.4699 -2.19251,0.46982 -2.67982,8e-5 -5.48135,-0.13913 -8.40459,-0.41762 -2.88863,-0.27833 -5.91636,-0.59155 -9.08323,-0.93964 -3.13222,-0.34794 -6.368774,-0.69596 -9.709657,-1.04405 -3.341025,-0.34794 -6.786383,-0.60895 -10.336086,-0.78304 -0.626489,3.89786 -1.426926,8.09145 -2.401313,12.58079 -0.974503,4.48948 -2.053353,9.08329 -3.236552,13.78145 -1.148508,4.66347 -2.366564,9.32688 -3.654172,13.99026 -1.252909,4.62865 -2.470965,9.06586 -3.654172,13.31163 -1.183302,4.21102 -2.296953,8.1088 -3.340957,11.69335 -1.009291,3.58458 -1.844529,6.66452 -2.505718,9.23983 -0.278455,1.18326 -0.713475,2.27951 -1.305061,3.28876 -0.556867,0.97444 -1.200696,1.82708 -1.931491,2.55792 -0.696071,0.73083 -1.426905,1.28765 -2.192503,1.67047 -0.765672,0.41762 -1.479105,0.62643 -2.140301,0.62643 -1.983726,0 -3.619401,-0.46982 -4.907031,-1.40946 -1.287689,-0.93965 -1.931518,-2.45352 -1.931491,-4.54162 -2.7e-5,-0.66122 0.104378,-1.39206 0.313215,-2.1925 0.452393,-3.16694 1.04402,-6.28168 1.774884,-9.34424 0.765605,-3.06253 1.653046,-6.24687 2.662325,-9.55305 1.009214,-3.34093 2.157667,-6.87329 3.445362,-10.5971 1.287623,-3.72373 2.714489,-7.81292 4.280601,-12.26757 1.566032,-4.48936 3.25391,-9.43119 5.063639,-14.8255 1.844439,-5.39419 3.828131,-11.39746 5.951079,-18.00985 -1.844536,0.13929 -3.723822,0.2959 -5.637865,0.46982 -1.879332,0.17409 -3.723817,0.4177 -5.53346,0.73084 -1.774922,0.27849 -3.445399,0.64391 -5.011436,1.09625 -1.531305,0.4525 -2.888568,1.02672 -4.071791,1.72268 -1.148484,0.69611 -2.070727,1.53135 -2.76673,2.50572 -0.661259,0.97452 -0.991874,2.12297 -0.991847,3.44536 -2.7e-5,0.0697 -0.05223,0.45249 -0.156608,1.14846 -0.06963,0.6961 -0.365443,1.46173 -0.887441,2.2969 -0.52205,0.80051 -1.357289,1.54874 -2.505718,2.24471 -1.113675,0.66129 -2.714549,0.99191 -4.802626,0.99185 -2.088115,6e-5 -3.70639,-0.34796 -4.854828,-1.04405 -1.148467,-0.69597 -1.983706,-1.46161 -2.505718,-2.29691 -0.626441,-0.97438 -0.974457,-2.08803 -1.044049,-3.34096"
           inkscape:connector-curvature="0" />
        <path
           id="path6436"
           style="fill:#4fa600;font-family:Pacifico;-inkscape-font-specification:Pacifico Bold"
           d="m 206.61041,776.29178 c -4e-5,0.93969 -0.10445,2.22735 -0.31321,3.86298 -0.20886,1.60092 -0.48727,3.3758 -0.83524,5.32465 -0.31326,1.91413 -0.66128,3.89782 -1.04405,5.95108 -0.38286,2.05333 -0.74828,3.96742 -1.09625,5.74227 -0.31326,1.77491 -0.57427,3.34098 -0.78304,4.69822 -0.20885,1.32248 -0.31325,2.24473 -0.31321,2.76673 -4e-5,0.97447 0.0174,1.87931 0.0522,2.71453 0.0348,0.80045 0.13916,1.51389 0.31321,2.1403 0.17397,0.59164 0.43498,1.06146 0.78304,1.40947 0.38278,0.31322 0.9222,0.46983 1.61828,0.46982 0.76559,10e-6 1.68783,-0.1914 2.76673,-0.57423 1.1136,-0.3828 2.27946,-0.88743 3.49756,-1.51387 1.25281,-0.66122 2.52307,-1.39205 3.81078,-2.1925 1.28761,-0.83522 2.50566,-1.70526 3.65417,-2.61012 1.1832,-0.90483 2.24465,-1.79227 3.18435,-2.66233 0.97439,-0.90482 1.75742,-1.74006 2.34911,-2.50572 -6e-5,1.14848 -6e-5,2.19253 0,3.13215 0.0347,0.93966 0.0521,1.84451 0.0522,2.71453 -7e-5,0.83525 -7e-5,1.70529 0,2.61012 0.0347,0.90486 0.0521,1.9141 0.0522,3.02774 -0.7657,0.76565 -1.72274,1.58349 -2.87114,2.45352 -1.11371,0.87005 -2.36657,1.74009 -3.75857,2.61012 -1.35732,0.87005 -2.81899,1.70529 -4.38501,2.50572 -1.53132,0.80044 -3.07999,1.51387 -4.64602,2.1403 -1.56612,0.59163 -3.11479,1.07885 -4.64602,1.46167 -1.53131,0.34802 -2.95818,0.52202 -4.2806,0.52202 -1.3225,0 -2.45355,-0.26101 -3.39316,-0.78303 -0.93968,-0.52203 -1.75751,-1.25286 -2.45351,-2.19251 -0.66127,-0.93964 -1.23549,-2.05329 -1.72268,-3.34095 -0.45246,-1.32246 -0.85268,-2.78413 -1.20066,-4.38501 -1.25289,1.63569 -2.57535,3.14956 -3.96739,4.54161 -1.39209,1.35727 -2.81895,2.54053 -4.2806,3.54977 -1.42689,1.00925 -2.88855,1.80969 -4.38501,2.40131 -1.46168,0.55683 -2.88855,0.83524 -4.2806,0.83524 -1.14846,0 -2.22731,-0.19141 -3.23655,-0.57423 -1.00926,-0.38281 -1.9141,-1.02664 -2.71453,-1.93149 -0.76564,-0.90484 -1.37467,-2.08809 -1.82708,-3.54976 -0.45243,-1.49647 -0.67864,-3.34095 -0.67863,-5.53346 -1e-5,-2.67972 0.31321,-6.09027 0.93964,-10.23168 0.66122,-4.14137 1.46166,-8.87439 2.40131,-14.19907 0.0696,-0.52199 0.1914,-1.21802 0.36542,-2.0881 0.2088,-0.9048 0.46981,-1.87925 0.78304,-2.92334 0.348,-1.04401 0.76562,-2.10545 1.25286,-3.18435 0.48721,-1.0788 1.06143,-2.05325 1.72268,-2.92334 0.66121,-0.86999 1.42685,-1.58342 2.2969,-2.1403 0.90483,-0.55677 1.91408,-0.85259 3.02775,-0.88744 1.84446,0.0697 3.16693,0.31327 3.96738,0.73084 0.80042,0.38286 1.20064,0.87009 1.20066,1.46167 -0.31324,1.84453 -0.66125,3.89782 -1.04405,6.15988 -0.34804,2.26215 -0.71345,4.54166 -1.09625,6.83853 -0.38284,2.29694 -0.74826,4.54164 -1.09625,6.73411 -0.34804,2.15773 -0.66125,4.08922 -0.93965,5.79448 -0.27843,1.7053 -0.50464,3.07996 -0.67863,4.12399 -0.13922,1.04407 -0.20883,1.58349 -0.20881,1.61828 -2e-5,0.62644 0.0522,1.23547 0.15661,1.82708 0.13919,0.55684 0.3306,1.06147 0.57423,1.51387 0.24359,0.45244 0.5568,0.81785 0.93964,1.09625 0.3828,0.27843 0.83522,0.41764 1.35726,0.41762 0.76562,2e-5 1.54866,-0.19139 2.34911,-0.57422 0.80042,-0.41761 1.54865,-0.99184 2.24471,-1.72268 0.73081,-0.76562 1.37464,-1.68787 1.93149,-2.76673 0.5568,-1.11364 0.97442,-2.3665 1.25286,-3.75858 l 5.16804,-26.51885 c 0.17398,-0.83519 0.87001,-1.53122 2.0881,-2.0881 1.25282,-0.59157 2.66229,-0.88739 4.2284,-0.88744 1.77484,5e-5 3.18431,0.31327 4.2284,0.93965 1.044,0.62647 1.56603,1.42691 1.56607,2.40131"
           inkscape:connector-curvature="0" />
        <path
           id="path6438"
           style="fill:#4fa600;font-family:Pacifico;-inkscape-font-specification:Pacifico Bold"
           d="m 234.01669,823.01298 c -3.20177,0 -6.0207,-0.59163 -8.4568,-1.77489 -2.40133,-1.18325 -4.41982,-2.76672 -6.05549,-4.75042 -1.63568,-1.98368 -2.87114,-4.28059 -3.70637,-6.89072 -0.83524,-2.61011 -1.25286,-5.32464 -1.25286,-8.14359 0,-2.01847 0.20881,-4.12397 0.62643,-6.31649 0.41761,-2.19248 1.02664,-4.33278 1.82709,-6.42091 0.83523,-2.12286 1.84447,-4.14135 3.02774,-6.05548 1.21804,-1.91405 2.61011,-3.58453 4.17619,-5.01144 1.60086,-1.46162 3.37575,-2.61007 5.32465,-3.44536 1.94888,-0.86999 4.08917,-1.30501 6.42091,-1.30506 1.98366,5e-5 3.81075,0.31326 5.48125,0.93964 1.70525,0.59168 3.14952,1.42692 4.33281,2.50572 1.21802,1.0789 2.15766,2.36656 2.81893,3.86298 0.696,1.46171 1.04401,3.04519 1.04405,4.75043 -4e-5,1.18329 -0.15665,2.34914 -0.46982,3.49756 -0.31325,1.14849 -0.78308,2.19254 -1.40947,3.13215 -0.59166,0.90487 -1.3225,1.63571 -2.1925,2.1925 -0.87008,0.55686 -1.84452,0.83527 -2.92334,0.83524 -1.63571,3e-5 -2.71456,-0.43499 -3.23655,-1.30506 -0.48725,-0.87001 -0.73086,-2.07067 -0.73084,-3.60197 -2e-5,-0.6264 0.0174,-1.28763 0.0522,-1.98369 0.0696,-0.696 0.10437,-1.32243 0.1044,-1.87929 -3e-5,-0.8352 -0.087,-1.53123 -0.26101,-2.0881 -0.17404,-0.55679 -0.55685,-0.8352 -1.14845,-0.83524 -1.4269,4e-5 -2.64495,0.34806 -3.65418,1.04405 -1.00927,0.66127 -1.87931,1.54871 -2.61012,2.66233 -0.69605,1.07888 -1.25288,2.31434 -1.67048,3.70637 -0.41764,1.3573 -0.74825,2.71456 -0.99184,4.07179 -0.24363,1.35729 -0.40024,2.66235 -0.46983,3.91519 -0.0696,1.21808 -0.10442,2.24472 -0.1044,3.07994 -2e-5,1.25288 0.10439,2.55794 0.31321,3.91518 0.2436,1.35728 0.67862,2.61014 1.30506,3.75858 0.62642,1.11367 1.47905,2.05331 2.55792,2.81893 1.07883,0.73085 2.4709,1.09627 4.1762,1.09626 1.67045,1e-5 3.51494,-0.50462 5.53346,-1.51388 2.01846,-1.04403 4.03696,-2.34909 6.05549,-3.91518 2.05325,-1.56606 4.00214,-3.28874 5.84667,-5.16804 1.84444,-1.87927 3.42792,-3.65415 4.75042,-5.32465 l 3.60197,6.05548 c -2.61017,3.72379 -5.4291,7.04735 -8.45679,9.97067 -1.28771,1.25287 -2.69717,2.47092 -4.2284,3.65417 -1.49651,1.18326 -3.07998,2.24471 -4.75043,3.18435 -1.6357,0.90485 -3.35838,1.65308 -5.16804,2.24471 -1.77491,0.55682 -3.58459,0.83524 -5.42905,0.83524"
           inkscape:connector-curvature="0" />
        <path
           id="path6440"
           style="fill:#4fa600;font-family:Pacifico;-inkscape-font-specification:Pacifico Bold"
           d="m 274.31699,790.54305 c 1.42685,-1.87925 3.02772,-3.89775 4.80263,-6.05549 1.77485,-2.15766 3.61934,-4.15875 5.53346,-6.00328 1.91405,-1.87924 3.81074,-3.42791 5.69007,-4.64602 1.91405,-1.2528 3.70633,-1.87923 5.37685,-1.87928 0.41757,5e-5 0.8874,0.087 1.40947,0.26101 0.52197,0.13925 1.0092,0.41767 1.46167,0.83524 0.48717,0.41767 0.88739,1.00929 1.20065,1.77488 0.31317,0.73088 0.46977,1.68793 0.46983,2.87114 -6e-5,2.36655 -0.33067,4.68086 -0.99185,6.94292 -0.66128,2.22734 -1.39212,4.47205 -2.1925,6.73412 -0.76569,2.22733 -1.47912,4.50684 -2.14031,6.83852 -0.62647,2.33173 -0.93968,4.76784 -0.93964,7.30834 -4e-5,1.39209 0.20877,2.50574 0.62643,3.34096 0.41757,0.83525 0.957,1.25287 1.61828,1.25286 0.83519,10e-6 1.72263,-0.17399 2.66232,-0.52202 0.9396,-0.34801 1.87924,-0.80043 2.81893,-1.35727 0.9396,-0.55681 1.86184,-1.18324 2.76673,-1.87929 0.90479,-0.73081 1.75743,-1.47905 2.55792,-2.2447 1.91404,-1.77486 3.79332,-3.79336 5.63787,-6.05549 l 0.88744,13.88586 c -0.62649,0.48723 -1.42693,1.09626 -2.40131,1.82708 -0.93971,0.73085 -2.00116,1.51388 -3.18435,2.34911 -1.14851,0.80045 -2.40137,1.61828 -3.75858,2.45352 -1.35732,0.83524 -2.73198,1.58348 -4.12399,2.2447 -1.35732,0.62643 -2.73198,1.14846 -4.124,1.56608 -1.35731,0.41762 -2.66237,0.62643 -3.91518,0.62643 -1.91413,0 -3.58461,-0.50463 -5.01144,-1.51387 -1.3921,-1.04405 -2.54055,-2.34911 -3.44536,-3.91519 -0.90487,-1.60087 -1.58351,-3.34095 -2.03589,-5.22024 -0.45246,-1.87928 -0.67867,-3.65416 -0.67864,-5.32465 -3e-5,-1.11364 0.13918,-2.3491 0.41762,-3.70638 0.31319,-1.39204 0.6786,-2.78411 1.09626,-4.1762 0.45238,-1.39204 0.93961,-2.7493 1.46166,-4.07179 0.5568,-1.32243 1.06142,-2.50568 1.51388,-3.54976 0.48718,-1.04402 0.9048,-1.89666 1.25285,-2.55792 0.34798,-0.6612 0.57419,-1.04402 0.67864,-1.14846 l -1.09626,-0.15661 c -0.59166,0.38286 -1.60091,1.3573 -3.02774,2.92334 -1.3921,1.56611 -2.97557,3.5498 -4.75042,5.95108 -1.77491,2.36654 -3.6194,5.04626 -5.53346,8.03918 -1.87931,2.95815 -3.58459,6.0207 -5.11584,9.18763 -0.76566,1.56608 -1.39208,2.94075 -1.87929,4.124 -0.48724,1.14845 -0.97446,2.1055 -1.46167,2.87113 -0.45244,0.73084 -0.95706,1.28766 -1.51387,1.67048 -0.55684,0.38282 -1.27027,0.57423 -2.1403,0.57423 -1.14847,0 -2.05331,-0.33062 -2.71453,-0.99185 -0.66124,-0.66123 -1.16586,-1.53127 -1.51387,-2.61012 -0.34802,-1.11365 -0.57423,-2.36651 -0.67863,-3.75858 -0.10441,-1.39206 -0.15662,-2.81892 -0.15661,-4.2806 -1e-5,-2.3317 0.0174,-5.37684 0.0522,-9.13543 0.0696,-3.79335 0.24361,-7.98695 0.52203,-12.58079 0.2784,-4.59378 0.67862,-9.4312 1.20065,-14.51228 0.52202,-5.08099 1.25285,-10.09242 2.19251,-15.03431 0.97443,-4.97657 2.17509,-9.70959 3.60197,-14.19907 1.46165,-4.52413 3.21913,-8.49151 5.27244,-11.90216 2.08808,-3.44527 4.52419,-6.1772 7.30835,-8.19579 2.7841,-2.01839 5.98585,-3.02764 9.60525,-3.02774 1.87925,10e-5 3.41052,0.27852 4.59382,0.83524 1.21801,0.55693 2.17506,1.33996 2.87113,2.34911 0.73079,1.00935 1.23541,2.2274 1.51387,3.65417 0.27837,1.39216 0.41758,2.95823 0.41762,4.69822 -4e-5,2.57541 -0.36546,5.42914 -1.09625,8.56121 -0.73088,3.13222 -1.70532,6.38617 -2.92334,9.76186 -1.18329,3.37582 -2.54056,6.80378 -4.07179,10.28388 -1.53131,3.44542 -3.09738,6.80377 -4.69822,10.07507 -1.60091,3.2366 -3.18438,6.29914 -4.75042,9.18764 -1.5313,2.88857 -2.88856,5.42909 -4.07179,7.62156 l 1.04404,0.73083 m 4.64602,-32.26112 c 2.05327,-5.32458 3.53234,-9.81399 4.43721,-13.46823 0.93961,-3.65409 1.40943,-6.35122 1.40947,-8.09138 -4e-5,-2.64484 -0.34805,-3.9673 -1.04405,-3.96739 -0.90488,9e-5 -2.24474,1.47916 -4.01959,4.43721 -1.77491,2.95822 -3.86301,7.25622 -6.26429,12.89401 -0.59166,1.91416 -1.14848,3.89785 -1.67048,5.95108 -0.48725,2.05336 -0.93967,4.10665 -1.35727,6.15989 -0.38284,2.01855 -0.74825,4.01964 -1.09625,6.00328 -0.31323,1.94894 -0.59165,3.81083 -0.83524,5.58566 -0.59164,4.14144 -1.04406,8.19583 -1.35726,12.16317 0.93962,-2.19246 1.96627,-4.57637 3.07994,-7.15173 1.11363,-2.57528 2.20988,-5.11579 3.28876,-7.62156 1.07882,-2.54047 2.08807,-4.92438 3.02774,-7.15174 0.97442,-2.26204 1.77485,-4.17613 2.40131,-5.74227"
           inkscape:connector-curvature="0" />
      </g>
      <g
         inkscape:export-ydpi="150"
         inkscape:export-xdpi="150"
         inkscape:export-filename="/media/204A46D84A46AA7C/yulia/Colectivo Libre/cabina_fotografica/logos_verde.png"
         id="g5749-5-30-8-0-5-9-7"
         transform="matrix(-0.23966887,-0.06421908,0.06421908,-0.23966887,-302.20009,853.40396)"
         style="fill:#93e75b;fill-opacity:1">
        <path
           id="path36-6-2-3-3-0-5-5-6-3"
           style="fill:#93e75b;fill-opacity:1;fill-rule:nonzero;stroke:none"
           d="m -1509.0107,502.24078 c 9.0412,5.5462 17.68,12.0699 25.76,19.5737 32.3062,30.0262 49.7187,70.2237 51.8775,111.195 -25.3025,31.1512 -63.6238,49.5 -94.535,61.2912 4.8387,-13.1637 14.3938,-41.6262 20.2712,-75.4087 4.7613,-27.3713 6.2263,-52.8875 4.3363,-75.8262 -1.2063,-14.6688 -3.7762,-28.305 -7.71,-40.825"
           inkscape:connector-curvature="0" />
        <path
           id="path60-7-5-0-5-6-2-1-7-6"
           style="fill:#93e75b;fill-opacity:1;fill-rule:nonzero;stroke:none"
           d="m -1431.1845,645.35198 c -0.8499,38.3512 -15.0649,76.545 -42.9375,106.9413 -9.3299,10.1712 -19.645,18.8787 -30.6537,26.0999 -39.4825,-6.4687 -74.44,-30.7224 -100.0538,-51.7837 13.7463,-2.3613 43.0026,-8.2563 75.01,-20.0237 25.9275,-9.54 48.6126,-21.0263 67.4001,-34.1325 12.0025,-8.3825 22.44,-17.4263 31.235,-27.1013"
           inkscape:connector-curvature="0" />
        <path
           id="path106-4-9-4-63-1-1-5-1-2"
           style="fill:#93e75b;fill-opacity:1;fill-rule:nonzero;stroke:none"
           d="m -1593.1244,478.55198 c 25.1537,0 50.3487,5.8587 73.3962,17.6688 14.1712,37.6437 10.7962,80.2349 5.4763,113.0962 -7.0525,-8.595 -20.9213,-24.5913 -39.7738,-42.0962 -22.63,-21.0376 -45.4962,-37.8238 -67.9688,-49.8713 -16.7087,-8.955 -33.1024,-15.2325 -49.0387,-18.7762 24.1287,-13.3113 50.995,-20.0213 77.9088,-20.0213"
           inkscape:connector-curvature="0" />
        <path
           id="path108-0-8-0-5-1-7-4-0-4"
           style="fill:#93e75b;fill-opacity:1;fill-rule:nonzero;stroke:none"
           d="m -1672.0844,673.99448 c 7.0525,8.595 20.9212,24.5813 39.7749,42.1075 22.6301,21.0263 45.4938,37.8 67.9688,49.8613 16.7075,8.955 33.1012,15.2212 49.0375,18.7749 -24.1288,13.3125 -50.995,20.0226 -77.9087,20.0226 -25.1538,0 -50.3476,-5.8613 -73.3963,-17.6713 -14.17,-37.6538 -10.795,-80.245 -5.4762,-113.095"
           inkscape:connector-curvature="0" />
        <path
           id="path142-1-4-61-4-6-1-0-8-5"
           style="fill:#93e75b;fill-opacity:1;fill-rule:nonzero;stroke:none"
           d="m -1660.4282,589.01198 c -4.8388,13.1625 -14.405,41.625 -20.2725,75.3975 -4.76,27.3825 -6.2238,52.8975 -4.3363,75.8362 1.2075,14.67 3.7775,28.3038 7.7113,40.815 -9.0412,-5.5362 -17.68,-12.0612 -25.7487,-19.5637 -32.3188,-30.0388 -49.7298,-70.2225 -51.8871,-111.1963 25.3021,-31.1624 63.622,-49.5 94.5333,-61.2887"
           inkscape:connector-curvature="0" />
        <path
           id="path154-6-8-5-3-0-5-4-0-2"
           style="fill:#93e75b;fill-opacity:1;fill-rule:nonzero;stroke:none"
           d="m -1681.5607,504.91698 c 39.4825,6.47 74.44,30.7237 100.0537,51.785 -13.7449,2.3625 -43.0137,8.2463 -75.01,20.025 -25.9262,9.5287 -48.6125,21.015 -67.4099,34.1325 -12.0025,8.37 -22.43,17.4262 -31.2251,27.1 0.8497,-38.35 15.0538,-76.5563 42.9363,-106.9538 9.3213,-10.1587 19.6362,-18.865 30.655,-26.0887"
           inkscape:connector-curvature="0" />
      </g>
      <g
         inkscape:export-ydpi="150"
         inkscape:export-xdpi="150"
         inkscape:export-filename="/media/204A46D84A46AA7C/yulia/Colectivo Libre/cabina_fotografica/logos_verde.png"
         id="g5749-5-30-8-0-6-6-5-0"
         transform="matrix(-0.23966887,-0.06421908,0.06421908,-0.23966887,-302.20009,853.40396)"
         style="opacity:0.7;fill:#0b2822;fill-opacity:1">
        <path
           id="path36-6-2-3-3-0-5-4-0-1-1"
           style="opacity:0.8;fill:#0b2822;fill-opacity:1;fill-rule:nonzero;stroke:none"
           d="m -1509.0107,502.24078 c 9.0412,5.5462 17.68,12.0699 25.76,19.5737 32.3062,30.0262 49.7187,70.2237 51.8775,111.195 -25.3025,31.1512 -63.6238,49.5 -94.535,61.2912 4.8387,-13.1637 14.3938,-41.6262 20.2712,-75.4087 4.7613,-27.3713 6.2263,-52.8875 4.3363,-75.8262 -1.2063,-14.6688 -3.7762,-28.305 -7.71,-40.825"
           inkscape:connector-curvature="0" />
        <path
           id="path60-7-5-0-5-6-2-7-0-6-1"
           style="fill:#0b2822;fill-opacity:1;fill-rule:nonzero;stroke:none"
           d="m -1431.1845,645.35198 c -0.8499,38.3512 -15.0649,76.545 -42.9375,106.9413 -9.3299,10.1712 -19.645,18.8787 -30.6537,26.0999 -39.4825,-6.4687 -74.44,-30.7224 -100.0538,-51.7837 13.7463,-2.3613 43.0026,-8.2563 75.01,-20.0237 25.9275,-9.54 48.6126,-21.0263 67.4001,-34.1325 12.0025,-8.3825 22.44,-17.4263 31.235,-27.1013"
           inkscape:connector-curvature="0" />
        <path
           id="path106-4-9-4-63-1-1-3-8-2-8"
           style="opacity:0.6;fill:#0b2822;fill-opacity:1;fill-rule:nonzero;stroke:none"
           d="m -1593.1244,478.55198 c 25.1537,0 50.3487,5.8587 73.3962,17.6688 14.1712,37.6437 10.7962,80.2349 5.4763,113.0962 -7.0525,-8.595 -20.9213,-24.5913 -39.7738,-42.0962 -22.63,-21.0376 -45.4962,-37.8238 -67.9688,-49.8713 -16.7087,-8.955 -33.1024,-15.2325 -49.0387,-18.7762 24.1287,-13.3113 50.995,-20.0213 77.9088,-20.0213"
           inkscape:connector-curvature="0" />
        <path
           id="path108-0-8-0-5-1-7-6-9-2-2"
           style="opacity:0;fill:#0b2822;fill-opacity:1;fill-rule:nonzero;stroke:none"
           d="m -1672.0844,673.99448 c 7.0525,8.595 20.9212,24.5813 39.7749,42.1075 22.6301,21.0263 45.4938,37.8 67.9688,49.8613 16.7075,8.955 33.1012,15.2212 49.0375,18.7749 -24.1288,13.3125 -50.995,20.0226 -77.9087,20.0226 -25.1538,0 -50.3476,-5.8613 -73.3963,-17.6713 -14.17,-37.6538 -10.795,-80.245 -5.4762,-113.095"
           inkscape:connector-curvature="0" />
        <path
           id="path142-1-4-61-4-6-1-4-6-0-6"
           style="opacity:0.2;fill:#0b2822;fill-opacity:1;fill-rule:nonzero;stroke:none"
           d="m -1660.4282,589.01198 c -4.8388,13.1625 -14.405,41.625 -20.2725,75.3975 -4.76,27.3825 -6.2238,52.8975 -4.3363,75.8362 1.2075,14.67 3.7775,28.3038 7.7113,40.815 -9.0412,-5.5362 -17.68,-12.0612 -25.7487,-19.5637 -32.3188,-30.0388 -49.7298,-70.2225 -51.8871,-111.1963 25.3021,-31.1624 63.622,-49.5 94.5333,-61.2887"
           inkscape:connector-curvature="0" />
        <path
           id="path154-6-8-5-3-0-5-7-2-9-7"
           style="opacity:0.4;fill:#0b2822;fill-opacity:1;fill-rule:nonzero;stroke:none"
           d="m -1681.5607,504.91698 c 39.4825,6.47 74.44,30.7237 100.0537,51.785 -13.7449,2.3625 -43.0137,8.2463 -75.01,20.025 -25.9262,9.5287 -48.6125,21.015 -67.4099,34.1325 -12.0025,8.37 -22.43,17.4262 -31.2251,27.1 0.8497,-38.35 15.0538,-76.5563 42.9363,-106.9538 9.3213,-10.1587 19.6362,-18.865 30.655,-26.0887"
           inkscape:connector-curvature="0" />
      </g>
    </g>
  </g>
</svg>
